<svg width="127" height="60" viewBox="0 0 127 60" fill="none" xmlns="http://www.w3.org/2000/svg">
<rect x="0.5" width="126" height="60" rx="8" fill="#FFE492"/>
<path d="M41.9382 36.5V23.4091H43.9134V34.7997H49.8452V36.5H41.9382ZM55.7206 36.6982C54.8002 36.6982 53.9969 36.4872 53.3108 36.0653C52.6247 35.6435 52.0921 35.0533 51.7128 34.2947C51.3335 33.5362 51.1439 32.6499 51.1439 31.6357C51.1439 30.6172 51.3335 29.7266 51.7128 28.9638C52.0921 28.201 52.6247 27.6087 53.3108 27.1868C53.9969 26.7649 54.8002 26.554 55.7206 26.554C56.6411 26.554 57.4443 26.7649 58.1304 27.1868C58.8165 27.6087 59.3492 28.201 59.7284 28.9638C60.1077 29.7266 60.2973 30.6172 60.2973 31.6357C60.2973 32.6499 60.1077 33.5362 59.7284 34.2947C59.3492 35.0533 58.8165 35.6435 58.1304 36.0653C57.4443 36.4872 56.6411 36.6982 55.7206 36.6982ZM55.727 35.0938C56.3236 35.0938 56.8179 34.9361 57.21 34.6207C57.602 34.3054 57.8918 33.8857 58.0793 33.3615C58.271 32.8374 58.3669 32.2599 58.3669 31.6293C58.3669 31.0028 58.271 30.4276 58.0793 29.9034C57.8918 29.375 57.602 28.951 57.21 28.6314C56.8179 28.3118 56.3236 28.152 55.727 28.152C55.1262 28.152 54.6276 28.3118 54.2313 28.6314C53.8392 28.951 53.5473 29.375 53.3556 29.9034C53.1681 30.4276 53.0743 31.0028 53.0743 31.6293C53.0743 32.2599 53.1681 32.8374 53.3556 33.3615C53.5473 33.8857 53.8392 34.3054 54.2313 34.6207C54.6276 34.9361 55.1262 35.0938 55.727 35.0938ZM66.1871 40.3864C65.4073 40.3864 64.7361 40.2841 64.1736 40.0795C63.6154 39.875 63.1594 39.6044 62.8057 39.2678C62.4521 38.9311 62.1878 38.5625 62.0131 38.1619L63.6559 37.4844C63.7709 37.6719 63.9244 37.87 64.1161 38.0788C64.3121 38.2919 64.5763 38.473 64.9087 38.6222C65.2454 38.7713 65.6779 38.8459 66.2063 38.8459C66.9307 38.8459 67.5295 38.669 68.0025 38.3153C68.4755 37.9659 68.712 37.4077 68.712 36.6406V34.7102H68.5905C68.4755 34.919 68.3093 35.1513 68.092 35.407C67.8789 35.6626 67.5849 35.8842 67.2099 36.0717C66.8349 36.2592 66.3469 36.353 65.7461 36.353C64.9705 36.353 64.2717 36.1719 63.6495 35.8097C63.0316 35.4432 62.5415 34.9041 62.1793 34.1925C61.8214 33.4766 61.6424 32.5966 61.6424 31.5526C61.6424 30.5085 61.8192 29.6136 62.1729 28.8679C62.5309 28.1222 63.0209 27.5511 63.6431 27.1548C64.2653 26.7543 64.9705 26.554 65.7589 26.554C66.3682 26.554 66.8604 26.6562 67.2354 26.8608C67.6104 27.0611 67.9023 27.2955 68.1111 27.5639C68.3242 27.8324 68.4883 28.0689 68.6033 28.2734H68.744V26.6818H70.6168V36.7173C70.6168 37.5611 70.4208 38.2536 70.0288 38.7947C69.6367 39.3359 69.1062 39.7365 68.4371 39.9964C67.7724 40.2564 67.0224 40.3864 66.1871 40.3864ZM66.168 34.7678C66.7177 34.7678 67.1822 34.6399 67.5614 34.3842C67.945 34.1243 68.2347 33.7536 68.4307 33.272C68.631 32.7862 68.7312 32.2045 68.7312 31.527C68.7312 30.8665 68.6332 30.2848 68.4371 29.782C68.2411 29.2791 67.9535 28.8871 67.5742 28.6058C67.195 28.3203 66.7262 28.1776 66.168 28.1776C65.5927 28.1776 65.1133 28.3267 64.7298 28.625C64.3462 28.919 64.0565 29.3196 63.8604 29.8267C63.6687 30.3338 63.5728 30.9006 63.5728 31.527C63.5728 32.1705 63.6708 32.7351 63.8668 33.2209C64.0628 33.7067 64.3526 34.0859 64.7361 34.3587C65.1239 34.6314 65.6012 34.7678 66.168 34.7678ZM72.82 36.5V26.6818H74.7313V36.5H72.82ZM73.7852 25.1669C73.4528 25.1669 73.1673 25.0561 72.9287 24.8345C72.6943 24.6087 72.5771 24.3402 72.5771 24.0291C72.5771 23.7138 72.6943 23.4453 72.9287 23.2237C73.1673 22.9979 73.4528 22.8849 73.7852 22.8849C74.1176 22.8849 74.401 22.9979 74.6354 23.2237C74.874 23.4453 74.9933 23.7138 74.9933 24.0291C74.9933 24.3402 74.874 24.6087 74.6354 24.8345C74.401 25.0561 74.1176 25.1669 73.7852 25.1669ZM78.8537 30.6705V36.5H76.9425V26.6818H78.777V28.2798H78.8984C79.1243 27.7599 79.478 27.3423 79.9595 27.027C80.4453 26.7116 81.0568 26.554 81.794 26.554C82.4631 26.554 83.049 26.6946 83.5518 26.9759C84.0547 27.2528 84.4446 27.6662 84.7216 28.2159C84.9986 28.7656 85.1371 29.4453 85.1371 30.255V36.5H83.2258V30.4851C83.2258 29.7734 83.0405 29.2173 82.6697 28.8168C82.299 28.4119 81.7898 28.2095 81.142 28.2095C80.6989 28.2095 80.3047 28.3054 79.9595 28.4972C79.6186 28.6889 79.348 28.9702 79.1477 29.3409C78.9517 29.7074 78.8537 30.1506 78.8537 30.6705Z" fill="#043873"/>
</svg>
