<svg width="295" height="169" viewBox="0 0 295 169" fill="none" xmlns="http://www.w3.org/2000/svg">
<g clip-path="url(#clip0_9_2760)">
<path d="M0 4.86525V11.6182C0 13.6749 2.50611 14.7719 4.03763 13.3322L11.3471 6.5792C12.9483 5.1052 11.904 2.5 9.71119 2.5H2.40169C1.07902 2.5 0 3.56265 0 4.86525Z" fill="white"/>
<path d="M34.5983 2.5H27.2888C25.1308 2.5 24.0517 5.1052 25.6529 6.5792L32.9624 13.3322C34.4939 14.7376 37 13.6749 37 11.6182V4.86525C37 3.56265 35.921 2.5 34.5983 2.5Z" fill="white"/>
<path d="M20.1533 18.9881L32.9624 30.8487C34.4939 32.2541 37 31.1914 37 29.1347V22.3132C37 21.6619 36.7215 21.0449 36.2342 20.5992L20.1533 5.6879C19.2135 4.83092 17.7865 4.83092 16.8467 5.6879L0.765757 20.5992C0.278457 21.0449 0 21.6619 0 22.3132V29.1347C0 31.1914 2.50611 32.2884 4.03763 30.8487L16.8467 18.9881C17.7865 18.1312 19.2135 18.1312 20.1533 18.9881Z" fill="white"/>
</g>
<path d="M51.7031 27L47.5469 11.7273H51.8324L54.1989 21.9886H54.3381L56.804 11.7273H61.0099L63.5156 21.929H63.6449L65.9716 11.7273H70.2472L66.1009 27H61.6165L58.9915 17.3949H58.8026L56.1776 27H51.7031ZM76.7425 18.1705V27H72.5067V6.63636H76.6232V14.4219H76.8022C77.1469 13.5204 77.7037 12.8144 78.4727 12.304C79.2416 11.7869 80.2061 11.5284 81.3661 11.5284C82.4267 11.5284 83.3514 11.7604 84.1403 12.2244C84.9357 12.6818 85.5522 13.3414 85.9897 14.2031C86.4338 15.0582 86.6526 16.0824 86.646 17.2756V27H82.4102V18.0312C82.4168 17.09 82.1781 16.3575 81.6942 15.8338C81.217 15.3101 80.5475 15.0483 79.6857 15.0483C79.109 15.0483 78.5986 15.1709 78.1545 15.4162C77.717 15.6615 77.3723 16.0194 77.1204 16.4901C76.8751 16.9541 76.7492 17.5142 76.7425 18.1705ZM89.9794 27V11.7273H94.2152V27H89.9794ZM92.1072 9.75852C91.4775 9.75852 90.9373 9.54972 90.4865 9.1321C90.0424 8.70786 89.8203 8.20076 89.8203 7.61079C89.8203 7.02746 90.0424 6.52699 90.4865 6.10938C90.9373 5.68513 91.4775 5.47301 92.1072 5.47301C92.737 5.47301 93.2739 5.68513 93.718 6.10938C94.1688 6.52699 94.3942 7.02746 94.3942 7.61079C94.3942 8.20076 94.1688 8.70786 93.718 9.1321C93.2739 9.54972 92.737 9.75852 92.1072 9.75852ZM105.732 11.7273V14.9091H96.5344V11.7273H105.732ZM98.6225 8.06818H102.858V22.3068C102.858 22.6979 102.918 23.0028 103.037 23.2216C103.157 23.4337 103.322 23.5829 103.534 23.669C103.753 23.7552 104.005 23.7983 104.29 23.7983C104.489 23.7983 104.688 23.7817 104.887 23.7486C105.086 23.7088 105.238 23.679 105.344 23.6591L106.01 26.8111C105.798 26.8774 105.5 26.9536 105.115 27.0398C104.731 27.1326 104.264 27.1889 103.713 27.2088C102.693 27.2486 101.798 27.1127 101.029 26.8011C100.266 26.4896 99.6732 26.0057 99.2489 25.3494C98.8247 24.6932 98.6159 23.8646 98.6225 22.8636V8.06818ZM115.287 27.2983C113.716 27.2983 112.364 26.9801 111.23 26.3438C110.104 25.7008 109.235 24.7926 108.625 23.6193C108.016 22.4394 107.711 21.044 107.711 19.4332C107.711 17.8622 108.016 16.4834 108.625 15.2969C109.235 14.1103 110.094 13.1856 111.201 12.5227C112.314 11.8598 113.62 11.5284 115.118 11.5284C116.126 11.5284 117.064 11.6908 117.932 12.0156C118.807 12.3338 119.569 12.8144 120.219 13.4574C120.875 14.1004 121.386 14.9091 121.75 15.8835C122.115 16.8513 122.297 17.9848 122.297 19.2841V20.4474H109.401V17.8224H118.31C118.31 17.2126 118.177 16.6723 117.912 16.2017C117.647 15.7311 117.279 15.3632 116.809 15.098C116.345 14.8262 115.804 14.6903 115.188 14.6903C114.545 14.6903 113.975 14.8395 113.478 15.1378C112.987 15.4295 112.603 15.8239 112.324 16.321C112.046 16.8116 111.903 17.3584 111.897 17.9616V20.4574C111.897 21.2131 112.036 21.866 112.314 22.4162C112.599 22.9664 113 23.3906 113.517 23.6889C114.034 23.9872 114.648 24.1364 115.357 24.1364C115.828 24.1364 116.258 24.0701 116.65 23.9375C117.041 23.8049 117.375 23.6061 117.654 23.3409C117.932 23.0758 118.144 22.7509 118.29 22.3665L122.208 22.625C122.009 23.5663 121.601 24.3883 120.985 25.0909C120.375 25.7869 119.586 26.3305 118.618 26.7216C117.657 27.1061 116.547 27.2983 115.287 27.2983ZM125.061 32.7273V11.7273H129.238V14.2926H129.426C129.612 13.8816 129.881 13.464 130.232 13.0398C130.59 12.6089 131.054 12.2509 131.624 11.9659C132.201 11.6742 132.917 11.5284 133.772 11.5284C134.885 11.5284 135.913 11.8201 136.854 12.4034C137.795 12.9801 138.548 13.8518 139.111 15.0185C139.675 16.1785 139.956 17.6335 139.956 19.3835C139.956 21.0871 139.681 22.5256 139.131 23.6989C138.587 24.8655 137.845 25.7505 136.904 26.3537C135.969 26.9503 134.922 27.2486 133.762 27.2486C132.94 27.2486 132.24 27.1127 131.664 26.8409C131.094 26.5691 130.626 26.2277 130.262 25.8168C129.897 25.3991 129.619 24.9782 129.426 24.554H129.297V32.7273H125.061ZM129.208 19.3636C129.208 20.2718 129.334 21.0639 129.586 21.7401C129.837 22.4162 130.202 22.9432 130.679 23.321C131.157 23.6922 131.737 23.8778 132.419 23.8778C133.109 23.8778 133.692 23.6889 134.169 23.3111C134.647 22.9266 135.008 22.3963 135.253 21.7202C135.505 21.0374 135.631 20.2519 135.631 19.3636C135.631 18.482 135.508 17.7064 135.263 17.0369C135.018 16.3674 134.657 15.8437 134.179 15.4659C133.702 15.0881 133.115 14.8991 132.419 14.8991C131.73 14.8991 131.147 15.0814 130.669 15.446C130.199 15.8106 129.837 16.3277 129.586 16.9972C129.334 17.6667 129.208 18.4555 129.208 19.3636ZM147.135 27.2884C146.161 27.2884 145.292 27.1193 144.53 26.7812C143.768 26.4366 143.165 25.9295 142.721 25.2599C142.283 24.5838 142.064 23.742 142.064 22.7344C142.064 21.8859 142.22 21.1733 142.532 20.5966C142.843 20.0199 143.267 19.5559 143.804 19.2045C144.341 18.8532 144.951 18.5881 145.634 18.4091C146.323 18.2301 147.046 18.1042 147.801 18.0312C148.69 17.9384 149.406 17.8523 149.949 17.7727C150.493 17.6866 150.887 17.5606 151.132 17.3949C151.378 17.2292 151.5 16.9839 151.5 16.6591V16.5994C151.5 15.9697 151.301 15.4825 150.904 15.1378C150.513 14.7931 149.956 14.6207 149.233 14.6207C148.471 14.6207 147.864 14.7898 147.414 15.1278C146.963 15.4593 146.665 15.8769 146.519 16.3807L142.601 16.0625C142.8 15.1345 143.191 14.3324 143.775 13.6562C144.358 12.9735 145.11 12.4498 146.032 12.0852C146.96 11.714 148.033 11.5284 149.253 11.5284C150.102 11.5284 150.914 11.6278 151.689 11.8267C152.471 12.0256 153.164 12.3338 153.767 12.7514C154.377 13.169 154.858 13.706 155.209 14.3622C155.56 15.0118 155.736 15.7907 155.736 16.6989V27H151.719V24.8821H151.6C151.355 25.3594 151.026 25.7803 150.615 26.1449C150.204 26.5028 149.711 26.7846 149.134 26.9901C148.557 27.1889 147.891 27.2884 147.135 27.2884ZM148.348 24.3651C148.971 24.3651 149.522 24.2424 149.999 23.9972C150.476 23.7453 150.851 23.4072 151.123 22.983C151.394 22.5587 151.53 22.0781 151.53 21.5412V19.9205C151.398 20.0066 151.215 20.0862 150.983 20.1591C150.758 20.2254 150.503 20.2884 150.218 20.348C149.933 20.401 149.648 20.4508 149.363 20.4972C149.078 20.5369 148.819 20.5734 148.587 20.6065C148.09 20.6795 147.656 20.7955 147.284 20.9545C146.913 21.1136 146.625 21.3291 146.419 21.6009C146.214 21.866 146.111 22.1974 146.111 22.5952C146.111 23.1719 146.32 23.6127 146.738 23.9176C147.162 24.2159 147.699 24.3651 148.348 24.3651ZM165.923 27.2983C164.359 27.2983 163.013 26.9669 161.886 26.304C160.766 25.6345 159.904 24.7064 159.301 23.5199C158.704 22.3333 158.406 20.9678 158.406 19.4233C158.406 17.8589 158.708 16.4867 159.311 15.3068C159.921 14.1203 160.786 13.1955 161.906 12.5327C163.026 11.8632 164.359 11.5284 165.903 11.5284C167.235 11.5284 168.402 11.7704 169.403 12.2543C170.404 12.7382 171.196 13.4176 171.779 14.2926C172.363 15.1676 172.684 16.1951 172.744 17.375H168.747C168.634 16.6127 168.336 15.9995 167.852 15.5355C167.375 15.0649 166.748 14.8295 165.973 14.8295C165.316 14.8295 164.743 15.0085 164.252 15.3665C163.769 15.7178 163.391 16.2315 163.119 16.9077C162.847 17.5838 162.711 18.4025 162.711 19.3636C162.711 20.3381 162.844 21.1667 163.109 21.8494C163.381 22.5322 163.762 23.0526 164.252 23.4105C164.743 23.7685 165.316 23.9474 165.973 23.9474C166.457 23.9474 166.891 23.848 167.275 23.6491C167.666 23.4503 167.988 23.1619 168.24 22.7841C168.498 22.3996 168.667 21.9389 168.747 21.402H172.744C172.678 22.5687 172.359 23.5961 171.789 24.4844C171.226 25.366 170.447 26.0554 169.453 26.5526C168.458 27.0497 167.282 27.2983 165.923 27.2983ZM182.416 27.2983C180.845 27.2983 179.493 26.9801 178.359 26.3438C177.232 25.7008 176.364 24.7926 175.754 23.6193C175.144 22.4394 174.839 21.044 174.839 19.4332C174.839 17.8622 175.144 16.4834 175.754 15.2969C176.364 14.1103 177.223 13.1856 178.33 12.5227C179.443 11.8598 180.749 11.5284 182.247 11.5284C183.255 11.5284 184.193 11.6908 185.061 12.0156C185.936 12.3338 186.698 12.8144 187.348 13.4574C188.004 14.1004 188.515 14.9091 188.879 15.8835C189.244 16.8513 189.426 17.9848 189.426 19.2841V20.4474H176.53V17.8224H185.439C185.439 17.2126 185.306 16.6723 185.041 16.2017C184.776 15.7311 184.408 15.3632 183.938 15.098C183.473 14.8262 182.933 14.6903 182.317 14.6903C181.674 14.6903 181.104 14.8395 180.607 15.1378C180.116 15.4295 179.732 15.8239 179.453 16.321C179.175 16.8116 179.032 17.3584 179.026 17.9616V20.4574C179.026 21.2131 179.165 21.866 179.443 22.4162C179.728 22.9664 180.129 23.3906 180.646 23.6889C181.163 23.9872 181.777 24.1364 182.486 24.1364C182.956 24.1364 183.387 24.0701 183.778 23.9375C184.17 23.8049 184.504 23.6061 184.783 23.3409C185.061 23.0758 185.273 22.7509 185.419 22.3665L189.337 22.625C189.138 23.5663 188.73 24.3883 188.114 25.0909C187.504 25.7869 186.715 26.3305 185.747 26.7216C184.786 27.1061 183.676 27.2983 182.416 27.2983Z" fill="white"/>
<path d="M3.60511 71L0.613636 61.1818H2.19886L4.32102 68.6989H4.4233L6.51989 61.1818H8.13068L10.2017 68.6733H10.304L12.4261 61.1818H14.0114L11.0199 71H9.53693L7.3892 63.4574H7.2358L5.08807 71H3.60511ZM17.1542 65.0938V71H15.6457V57.9091H17.1542V62.7159H17.282C17.5122 62.2088 17.8573 61.8061 18.3176 61.5078C18.782 61.2053 19.3999 61.054 20.1713 61.054C20.8403 61.054 21.4262 61.1882 21.9291 61.4567C22.4319 61.7209 22.8218 62.1278 23.0988 62.6776C23.3801 63.223 23.5207 63.9176 23.5207 64.7614V71H22.0122V64.8636C22.0122 64.0838 21.8097 63.4808 21.4049 63.0547C21.0043 62.6243 20.4482 62.4091 19.7366 62.4091C19.2423 62.4091 18.7991 62.5135 18.407 62.7223C18.0193 62.9311 17.7124 63.2358 17.4866 63.6364C17.265 64.0369 17.1542 64.5227 17.1542 65.0938ZM25.9204 71V61.1818H27.429V71H25.9204ZM26.6875 59.5455C26.3935 59.5455 26.1399 59.4453 25.9268 59.245C25.718 59.0447 25.6136 58.804 25.6136 58.5227C25.6136 58.2415 25.718 58.0007 25.9268 57.8004C26.1399 57.6001 26.3935 57.5 26.6875 57.5C26.9815 57.5 27.2329 57.6001 27.4418 57.8004C27.6548 58.0007 27.7614 58.2415 27.7614 58.5227C27.7614 58.804 27.6548 59.0447 27.4418 59.245C27.2329 59.4453 26.9815 59.5455 26.6875 59.5455ZM34.1018 61.1818V62.4602H29.0138V61.1818H34.1018ZM30.4967 58.8295H32.0052V68.1875C32.0052 68.6136 32.067 68.9332 32.1906 69.1463C32.3184 69.3551 32.4804 69.4957 32.6764 69.5682C32.8767 69.6364 33.0876 69.6705 33.3092 69.6705C33.4754 69.6705 33.6118 69.6619 33.7183 69.6449C33.8248 69.6236 33.9101 69.6065 33.974 69.5938L34.2808 70.9489C34.1785 70.9872 34.0358 71.0256 33.8525 71.0639C33.6693 71.1065 33.437 71.1278 33.1558 71.1278C32.7297 71.1278 32.312 71.0362 31.903 70.853C31.4981 70.6697 31.1615 70.3906 30.893 70.0156C30.6288 69.6406 30.4967 69.1676 30.4967 68.5966V58.8295ZM40.022 71.2045C39.076 71.2045 38.2599 70.9957 37.5739 70.5781C36.892 70.1562 36.3658 69.5682 35.995 68.8139C35.6285 68.0554 35.4453 67.1733 35.4453 66.1676C35.4453 65.1619 35.6285 64.2756 35.995 63.5085C36.3658 62.7372 36.8814 62.1364 37.5419 61.706C38.2067 61.2713 38.9822 61.054 39.8686 61.054C40.38 61.054 40.8849 61.1392 41.3835 61.3097C41.8821 61.4801 42.3359 61.7571 42.745 62.1406C43.1541 62.5199 43.4801 63.0227 43.723 63.6491C43.9659 64.2756 44.0873 65.0469 44.0873 65.9631V66.6023H36.5192V65.2983H42.5533C42.5533 64.7443 42.4425 64.25 42.2209 63.8153C42.0035 63.3807 41.6925 63.0376 41.2876 62.7862C40.8871 62.5348 40.414 62.4091 39.8686 62.4091C39.2677 62.4091 38.7479 62.5582 38.3089 62.8565C37.8743 63.1506 37.5398 63.5341 37.3054 64.0071C37.071 64.4801 36.9538 64.9872 36.9538 65.5284V66.3977C36.9538 67.1392 37.0817 67.7678 37.3373 68.2834C37.5973 68.7947 37.9574 69.1847 38.4176 69.4531C38.8778 69.7173 39.4126 69.8494 40.022 69.8494C40.4183 69.8494 40.7763 69.794 41.0959 69.6832C41.4197 69.5682 41.6989 69.3977 41.9332 69.1719C42.1676 68.9418 42.3487 68.6562 42.4765 68.3153L43.9339 68.7244C43.7805 69.2188 43.5227 69.6534 43.1605 70.0284C42.7983 70.3991 42.3508 70.6889 41.8182 70.8977C41.2855 71.1023 40.6868 71.2045 40.022 71.2045ZM46.0221 74.6818V61.1818H47.4795V62.7415H47.6585C47.7692 62.571 47.9227 62.3537 48.1187 62.0895C48.319 61.821 48.6045 61.5824 48.9752 61.3736C49.3502 61.1605 49.8573 61.054 50.4965 61.054C51.3232 61.054 52.0519 61.2607 52.6826 61.674C53.3133 62.0874 53.8055 62.6733 54.1592 63.4318C54.5129 64.1903 54.6897 65.0852 54.6897 66.1165C54.6897 67.1562 54.5129 68.0575 54.1592 68.8203C53.8055 69.5788 53.3154 70.1669 52.689 70.5845C52.0626 70.9979 51.3403 71.2045 50.5221 71.2045C49.8914 71.2045 49.3864 71.1001 49.0072 70.8913C48.6279 70.6783 48.336 70.4375 48.1315 70.169C47.9269 69.8963 47.7692 69.6705 47.6585 69.4915H47.5306V74.6818H46.0221ZM47.505 66.0909C47.505 66.8324 47.6137 67.4865 47.831 68.0533C48.0484 68.6158 48.3658 69.0568 48.7835 69.3764C49.2011 69.6918 49.7124 69.8494 50.3175 69.8494C50.9482 69.8494 51.4745 69.6832 51.8964 69.3509C52.3225 69.0142 52.6421 68.5625 52.8552 67.9957C53.0725 67.4247 53.1812 66.7898 53.1812 66.0909C53.1812 65.4006 53.0746 64.7784 52.8616 64.2244C52.6528 63.6662 52.3353 63.2251 51.9092 62.9013C51.4873 62.5732 50.9567 62.4091 50.3175 62.4091C49.7039 62.4091 49.1883 62.5646 48.7707 62.8757C48.3531 63.1825 48.0377 63.6129 47.8246 64.1669C47.6116 64.7166 47.505 65.358 47.505 66.0909ZM59.52 71.2301C58.8979 71.2301 58.3333 71.1129 57.8262 70.8786C57.319 70.6399 56.9163 70.2969 56.6181 69.8494C56.3198 69.3977 56.1706 68.8523 56.1706 68.2131C56.1706 67.6506 56.2814 67.1946 56.503 66.8452C56.7246 66.4915 57.0208 66.2145 57.3915 66.0142C57.7622 65.8139 58.1713 65.6648 58.6188 65.5668C59.0705 65.4645 59.5243 65.3835 59.9803 65.3239C60.5769 65.2472 61.0605 65.1896 61.4313 65.1513C61.8063 65.1087 62.079 65.0384 62.2494 64.9403C62.4242 64.8423 62.5115 64.6719 62.5115 64.429V64.3778C62.5115 63.7472 62.3389 63.2571 61.9938 62.9077C61.6529 62.5582 61.1351 62.3835 60.4405 62.3835C59.7203 62.3835 59.1557 62.5412 58.7466 62.8565C58.3375 63.1719 58.0499 63.5085 57.8837 63.8665L56.4519 63.3551C56.7075 62.7585 57.0485 62.294 57.4746 61.9616C57.905 61.625 58.3737 61.3906 58.8808 61.2585C59.3922 61.1222 59.895 61.054 60.3894 61.054C60.7047 61.054 61.0669 61.0923 61.476 61.169C61.8894 61.2415 62.2878 61.3928 62.6713 61.6229C63.0591 61.853 63.3808 62.2003 63.6365 62.6648C63.8922 63.1293 64.02 63.7514 64.02 64.5312V71H62.5115V69.6705H62.4348C62.3325 69.8835 62.1621 70.1115 61.9235 70.3544C61.6848 70.5973 61.3673 70.804 60.971 70.9744C60.5747 71.1449 60.0911 71.2301 59.52 71.2301ZM59.7502 69.875C60.3467 69.875 60.8496 69.7578 61.2587 69.5234C61.672 69.2891 61.9831 68.9865 62.1919 68.6158C62.405 68.245 62.5115 67.8551 62.5115 67.446V66.0653C62.4476 66.142 62.307 66.2124 62.0896 66.2763C61.8766 66.3359 61.6294 66.3892 61.3482 66.4361C61.0712 66.4787 60.8006 66.517 60.5364 66.5511C60.2764 66.581 60.0655 66.6065 59.9036 66.6278C59.5115 66.679 59.145 66.7621 58.8041 66.8771C58.4675 66.9879 58.1948 67.1562 57.986 67.3821C57.7814 67.6037 57.6791 67.9062 57.6791 68.2898C57.6791 68.8139 57.873 69.2102 58.2608 69.4787C58.6529 69.7429 59.1493 69.875 59.7502 69.875ZM70.4021 71.2045C69.4816 71.2045 68.689 70.9872 68.0242 70.5526C67.3594 70.1179 66.8481 69.5192 66.4901 68.7564C66.1322 67.9936 65.9532 67.1222 65.9532 66.142C65.9532 65.1449 66.1364 64.2649 66.5029 63.5021C66.8736 62.7351 67.3893 62.1364 68.0498 61.706C68.7146 61.2713 69.4901 61.054 70.3765 61.054C71.0668 61.054 71.689 61.1818 72.243 61.4375C72.7969 61.6932 73.2508 62.0511 73.6045 62.5114C73.9582 62.9716 74.1776 63.5085 74.2629 64.1222H72.7543C72.6393 63.6747 72.3836 63.2784 71.9873 62.9332C71.5952 62.5838 71.0668 62.4091 70.4021 62.4091C69.814 62.4091 69.2984 62.5625 68.8552 62.8693C68.4163 63.1719 68.0732 63.6001 67.8261 64.1541C67.5832 64.7038 67.4617 65.3494 67.4617 66.0909C67.4617 66.8494 67.581 67.5099 67.8197 68.0724C68.0626 68.6349 68.4035 69.0717 68.8424 69.3828C69.2856 69.6939 69.8055 69.8494 70.4021 69.8494C70.7941 69.8494 71.1499 69.7812 71.4695 69.6449C71.7891 69.5085 72.0597 69.3125 72.2813 69.0568C72.5029 68.8011 72.6606 68.4943 72.7543 68.1364H74.2629C74.1776 68.7159 73.9667 69.2379 73.63 69.7024C73.2977 70.1626 72.8566 70.5291 72.3069 70.8018C71.7614 71.0703 71.1265 71.2045 70.4021 71.2045ZM80.2246 71.2045C79.2786 71.2045 78.4625 70.9957 77.7764 70.5781C77.0946 70.1562 76.5683 69.5682 76.1976 68.8139C75.8311 68.0554 75.6479 67.1733 75.6479 66.1676C75.6479 65.1619 75.8311 64.2756 76.1976 63.5085C76.5683 62.7372 77.084 62.1364 77.7445 61.706C78.4092 61.2713 79.1848 61.054 80.0712 61.054C80.5825 61.054 81.0875 61.1392 81.5861 61.3097C82.0847 61.4801 82.5385 61.7571 82.9476 62.1406C83.3567 62.5199 83.6827 63.0227 83.9256 63.6491C84.1685 64.2756 84.2899 65.0469 84.2899 65.9631V66.6023H76.7217V65.2983H82.7558C82.7558 64.7443 82.645 64.25 82.4234 63.8153C82.2061 63.3807 81.895 63.0376 81.4902 62.7862C81.0896 62.5348 80.6166 62.4091 80.0712 62.4091C79.4703 62.4091 78.9504 62.5582 78.5115 62.8565C78.0769 63.1506 77.7423 63.5341 77.508 64.0071C77.2736 64.4801 77.1564 64.9872 77.1564 65.5284V66.3977C77.1564 67.1392 77.2842 67.7678 77.5399 68.2834C77.7999 68.7947 78.16 69.1847 78.6202 69.4531C79.0804 69.7173 79.6152 69.8494 80.2246 69.8494C80.6209 69.8494 80.9788 69.794 81.2984 69.6832C81.6223 69.5682 81.9014 69.3977 82.1358 69.1719C82.3702 68.9418 82.5513 68.6562 82.6791 68.3153L84.1365 68.7244C83.9831 69.2188 83.7253 69.6534 83.3631 70.0284C83.0009 70.3991 82.5534 70.6889 82.0207 70.8977C81.4881 71.1023 80.8894 71.2045 80.2246 71.2045ZM93.1516 71L90.1601 61.1818H91.7453L93.8675 68.6989H93.9698L96.0664 61.1818H97.6772L99.7482 68.6733H99.8505L101.973 61.1818H103.558L100.566 71H99.0834L96.9357 63.4574H96.7823L94.6346 71H93.1516ZM108.081 71.2301C107.459 71.2301 106.895 71.1129 106.387 70.8786C105.88 70.6399 105.478 70.2969 105.179 69.8494C104.881 69.3977 104.732 68.8523 104.732 68.2131C104.732 67.6506 104.843 67.1946 105.064 66.8452C105.286 66.4915 105.582 66.2145 105.953 66.0142C106.324 65.8139 106.733 65.6648 107.18 65.5668C107.632 65.4645 108.086 65.3835 108.542 65.3239C109.138 65.2472 109.622 65.1896 109.993 65.1513C110.368 65.1087 110.64 65.0384 110.811 64.9403C110.985 64.8423 111.073 64.6719 111.073 64.429V64.3778C111.073 63.7472 110.9 63.2571 110.555 62.9077C110.214 62.5582 109.696 62.3835 109.002 62.3835C108.282 62.3835 107.717 62.5412 107.308 62.8565C106.899 63.1719 106.611 63.5085 106.445 63.8665L105.013 63.3551C105.269 62.7585 105.61 62.294 106.036 61.9616C106.466 61.625 106.935 61.3906 107.442 61.2585C107.954 61.1222 108.456 61.054 108.951 61.054C109.266 61.054 109.628 61.0923 110.037 61.169C110.451 61.2415 110.849 61.3928 111.233 61.6229C111.62 61.853 111.942 62.2003 112.198 62.6648C112.454 63.1293 112.581 63.7514 112.581 64.5312V71H111.073V69.6705H110.996C110.894 69.8835 110.723 70.1115 110.485 70.3544C110.246 70.5973 109.929 70.804 109.532 70.9744C109.136 71.1449 108.652 71.2301 108.081 71.2301ZM108.311 69.875C108.908 69.875 109.411 69.7578 109.82 69.5234C110.233 69.2891 110.544 68.9865 110.753 68.6158C110.966 68.245 111.073 67.8551 111.073 67.446V66.0653C111.009 66.142 110.868 66.2124 110.651 66.2763C110.438 66.3359 110.191 66.3892 109.909 66.4361C109.633 66.4787 109.362 66.517 109.098 66.5511C108.838 66.581 108.627 66.6065 108.465 66.6278C108.073 66.679 107.706 66.7621 107.365 66.8771C107.029 66.9879 106.756 67.1562 106.547 67.3821C106.343 67.6037 106.24 67.9062 106.24 68.2898C106.24 68.8139 106.434 69.2102 106.822 69.4787C107.214 69.7429 107.711 69.875 108.311 69.875ZM121.929 63.3807L120.574 63.7642C120.489 63.5384 120.363 63.3189 120.197 63.1058C120.035 62.8885 119.814 62.7095 119.532 62.5689C119.251 62.4283 118.891 62.358 118.452 62.358C117.851 62.358 117.35 62.4964 116.95 62.7734C116.554 63.0462 116.355 63.3935 116.355 63.8153C116.355 64.1903 116.492 64.4865 116.765 64.7038C117.037 64.9212 117.463 65.1023 118.043 65.2472L119.5 65.6051C120.378 65.8182 121.032 66.1442 121.463 66.5831C121.893 67.0178 122.108 67.5781 122.108 68.2642C122.108 68.8267 121.946 69.3295 121.622 69.7727C121.303 70.2159 120.855 70.5653 120.28 70.821C119.705 71.0767 119.036 71.2045 118.273 71.2045C117.272 71.2045 116.443 70.9872 115.787 70.5526C115.13 70.1179 114.715 69.483 114.54 68.6477L115.972 68.2898C116.108 68.8182 116.366 69.2145 116.745 69.4787C117.129 69.7429 117.63 69.875 118.247 69.875C118.951 69.875 119.509 69.7259 119.922 69.4276C120.34 69.125 120.549 68.7628 120.549 68.3409C120.549 68 120.429 67.7145 120.191 67.4844C119.952 67.25 119.586 67.0753 119.091 66.9602L117.455 66.5767C116.556 66.3636 115.895 66.0334 115.473 65.5859C115.056 65.1342 114.847 64.5696 114.847 63.892C114.847 63.3381 115.002 62.848 115.314 62.4219C115.629 61.9957 116.057 61.6612 116.598 61.4183C117.144 61.1754 117.762 61.054 118.452 61.054C119.424 61.054 120.186 61.267 120.74 61.6932C121.299 62.1193 121.695 62.6818 121.929 63.3807ZM132.71 71.2045C131.79 71.2045 130.997 70.9872 130.332 70.5526C129.668 70.1179 129.156 69.5192 128.798 68.7564C128.44 67.9936 128.261 67.1222 128.261 66.142C128.261 65.1449 128.445 64.2649 128.811 63.5021C129.182 62.7351 129.697 62.1364 130.358 61.706C131.023 61.2713 131.798 61.054 132.685 61.054C133.375 61.054 133.997 61.1818 134.551 61.4375C135.105 61.6932 135.559 62.0511 135.913 62.5114C136.266 62.9716 136.486 63.5085 136.571 64.1222H135.062C134.947 63.6747 134.692 63.2784 134.295 62.9332C133.903 62.5838 133.375 62.4091 132.71 62.4091C132.122 62.4091 131.606 62.5625 131.163 62.8693C130.724 63.1719 130.381 63.6001 130.134 64.1541C129.891 64.7038 129.77 65.3494 129.77 66.0909C129.77 66.8494 129.889 67.5099 130.128 68.0724C130.371 68.6349 130.712 69.0717 131.151 69.3828C131.594 69.6939 132.114 69.8494 132.71 69.8494C133.102 69.8494 133.458 69.7812 133.778 69.6449C134.097 69.5085 134.368 69.3125 134.589 69.0568C134.811 68.8011 134.969 68.4943 135.062 68.1364H136.571C136.486 68.7159 136.275 69.2379 135.938 69.7024C135.606 70.1626 135.165 70.5291 134.615 70.8018C134.07 71.0703 133.435 71.2045 132.71 71.2045ZM138.416 71V61.1818H139.874V62.6648H139.976C140.155 62.179 140.479 61.7848 140.947 61.4822C141.416 61.1797 141.945 61.0284 142.533 61.0284C142.644 61.0284 142.782 61.0305 142.948 61.0348C143.114 61.0391 143.24 61.0455 143.325 61.054V62.5881C143.274 62.5753 143.157 62.5561 142.974 62.5305C142.795 62.5007 142.605 62.4858 142.405 62.4858C141.928 62.4858 141.501 62.5859 141.126 62.7862C140.756 62.9822 140.462 63.255 140.244 63.6044C140.031 63.9496 139.925 64.3437 139.925 64.7869V71H138.416ZM148.571 71.2045C147.625 71.2045 146.809 70.9957 146.123 70.5781C145.441 70.1562 144.915 69.5682 144.544 68.8139C144.178 68.0554 143.994 67.1733 143.994 66.1676C143.994 65.1619 144.178 64.2756 144.544 63.5085C144.915 62.7372 145.431 62.1364 146.091 61.706C146.756 61.2713 147.531 61.054 148.418 61.054C148.929 61.054 149.434 61.1392 149.933 61.3097C150.431 61.4801 150.885 61.7571 151.294 62.1406C151.703 62.5199 152.029 63.0227 152.272 63.6491C152.515 64.2756 152.636 65.0469 152.636 65.9631V66.6023H145.068V65.2983H151.102C151.102 64.7443 150.992 64.25 150.77 63.8153C150.553 63.3807 150.242 63.0376 149.837 62.7862C149.436 62.5348 148.963 62.4091 148.418 62.4091C147.817 62.4091 147.297 62.5582 146.858 62.8565C146.423 63.1506 146.089 63.5341 145.855 64.0071C145.62 64.4801 145.503 64.9872 145.503 65.5284V66.3977C145.503 67.1392 145.631 67.7678 145.886 68.2834C146.146 68.7947 146.507 69.1847 146.967 69.4531C147.427 69.7173 147.962 69.8494 148.571 69.8494C148.967 69.8494 149.325 69.794 149.645 69.6832C149.969 69.5682 150.248 69.3977 150.482 69.1719C150.717 68.9418 150.898 68.6562 151.026 68.3153L152.483 68.7244C152.33 69.2188 152.072 69.6534 151.71 70.0284C151.347 70.3991 150.9 70.6889 150.367 70.8977C149.835 71.1023 149.236 71.2045 148.571 71.2045ZM157.46 71.2301C156.838 71.2301 156.274 71.1129 155.767 70.8786C155.259 70.6399 154.857 70.2969 154.558 69.8494C154.26 69.3977 154.111 68.8523 154.111 68.2131C154.111 67.6506 154.222 67.1946 154.443 66.8452C154.665 66.4915 154.961 66.2145 155.332 66.0142C155.703 65.8139 156.112 65.6648 156.559 65.5668C157.011 65.4645 157.465 65.3835 157.921 65.3239C158.517 65.2472 159.001 65.1896 159.372 65.1513C159.747 65.1087 160.019 65.0384 160.19 64.9403C160.365 64.8423 160.452 64.6719 160.452 64.429V64.3778C160.452 63.7472 160.279 63.2571 159.934 62.9077C159.593 62.5582 159.075 62.3835 158.381 62.3835C157.661 62.3835 157.096 62.5412 156.687 62.8565C156.278 63.1719 155.99 63.5085 155.824 63.8665L154.392 63.3551C154.648 62.7585 154.989 62.294 155.415 61.9616C155.845 61.625 156.314 61.3906 156.821 61.2585C157.333 61.1222 157.835 61.054 158.33 61.054C158.645 61.054 159.007 61.0923 159.416 61.169C159.83 61.2415 160.228 61.3928 160.612 61.6229C161 61.853 161.321 62.2003 161.577 62.6648C161.833 63.1293 161.96 63.7514 161.96 64.5312V71H160.452V69.6705H160.375C160.273 69.8835 160.102 70.1115 159.864 70.3544C159.625 70.5973 159.308 70.804 158.911 70.9744C158.515 71.1449 158.031 71.2301 157.46 71.2301ZM157.691 69.875C158.287 69.875 158.79 69.7578 159.199 69.5234C159.612 69.2891 159.924 68.9865 160.132 68.6158C160.345 68.245 160.452 67.8551 160.452 67.446V66.0653C160.388 66.142 160.247 66.2124 160.03 66.2763C159.817 66.3359 159.57 66.3892 159.289 66.4361C159.012 66.4787 158.741 66.517 158.477 66.5511C158.217 66.581 158.006 66.6065 157.844 66.6278C157.452 66.679 157.085 66.7621 156.745 66.8771C156.408 66.9879 156.135 67.1562 155.926 67.3821C155.722 67.6037 155.62 67.9062 155.62 68.2898C155.62 68.8139 155.813 69.2102 156.201 69.4787C156.593 69.7429 157.09 69.875 157.691 69.875ZM168.624 61.1818V62.4602H163.536V61.1818H168.624ZM165.019 58.8295H166.527V68.1875C166.527 68.6136 166.589 68.9332 166.712 69.1463C166.84 69.3551 167.002 69.4957 167.198 69.5682C167.399 69.6364 167.609 69.6705 167.831 69.6705C167.997 69.6705 168.134 69.6619 168.24 69.6449C168.347 69.6236 168.432 69.6065 168.496 69.5938L168.803 70.9489C168.7 70.9872 168.558 71.0256 168.374 71.0639C168.191 71.1065 167.959 71.1278 167.678 71.1278C167.252 71.1278 166.834 71.0362 166.425 70.853C166.02 70.6697 165.683 70.3906 165.415 70.0156C165.151 69.6406 165.019 69.1676 165.019 68.5966V58.8295ZM174.544 71.2045C173.598 71.2045 172.782 70.9957 172.096 70.5781C171.414 70.1562 170.888 69.5682 170.517 68.8139C170.15 68.0554 169.967 67.1733 169.967 66.1676C169.967 65.1619 170.15 64.2756 170.517 63.5085C170.888 62.7372 171.403 62.1364 172.064 61.706C172.729 61.2713 173.504 61.054 174.39 61.054C174.902 61.054 175.407 61.1392 175.905 61.3097C176.404 61.4801 176.858 61.7571 177.267 62.1406C177.676 62.5199 178.002 63.0227 178.245 63.6491C178.488 64.2756 178.609 65.0469 178.609 65.9631V66.6023H171.041V65.2983H177.075C177.075 64.7443 176.964 64.25 176.743 63.8153C176.525 63.3807 176.214 63.0376 175.81 62.7862C175.409 62.5348 174.936 62.4091 174.39 62.4091C173.79 62.4091 173.27 62.5582 172.831 62.8565C172.396 63.1506 172.062 63.5341 171.827 64.0071C171.593 64.4801 171.476 64.9872 171.476 65.5284V66.3977C171.476 67.1392 171.604 67.7678 171.859 68.2834C172.119 68.7947 172.479 69.1847 172.939 69.4531C173.4 69.7173 173.935 69.8494 174.544 69.8494C174.94 69.8494 175.298 69.794 175.618 69.6832C175.942 69.5682 176.221 69.3977 176.455 69.1719C176.689 68.9418 176.871 68.6562 176.998 68.3153L178.456 68.7244C178.302 69.2188 178.045 69.6534 177.682 70.0284C177.32 70.3991 176.873 70.6889 176.34 70.8977C175.807 71.1023 175.209 71.2045 174.544 71.2045ZM184.251 71.2045C183.433 71.2045 182.711 70.9979 182.084 70.5845C181.458 70.1669 180.968 69.5788 180.614 68.8203C180.261 68.0575 180.084 67.1562 180.084 66.1165C180.084 65.0852 180.261 64.1903 180.614 63.4318C180.968 62.6733 181.46 62.0874 182.091 61.674C182.722 61.2607 183.45 61.054 184.277 61.054C184.916 61.054 185.421 61.1605 185.792 61.3736C186.167 61.5824 186.452 61.821 186.648 62.0895C186.849 62.3537 187.004 62.571 187.115 62.7415H187.243V57.9091H188.751V71H187.294V69.4915H187.115C187.004 69.6705 186.847 69.8963 186.642 70.169C186.437 70.4375 186.146 70.6783 185.766 70.8913C185.387 71.1001 184.882 71.2045 184.251 71.2045ZM184.456 69.8494C185.061 69.8494 185.572 69.6918 185.99 69.3764C186.408 69.0568 186.725 68.6158 186.942 68.0533C187.16 67.4865 187.268 66.8324 187.268 66.0909C187.268 65.358 187.162 64.7166 186.949 64.1669C186.736 63.6129 186.42 63.1825 186.003 62.8757C185.585 62.5646 185.07 62.4091 184.456 62.4091C183.817 62.4091 183.284 62.5732 182.858 62.9013C182.436 63.2251 182.119 63.6662 181.905 64.2244C181.697 64.7784 181.592 65.4006 181.592 66.0909C181.592 66.7898 181.699 67.4247 181.912 67.9957C182.129 68.5625 182.449 69.0142 182.871 69.3509C183.297 69.6832 183.825 69.8494 184.456 69.8494ZM200.438 61.1818V62.4602H195.146V61.1818H200.438ZM196.731 71V59.8267C196.731 59.2642 196.863 58.7955 197.127 58.4205C197.391 58.0455 197.734 57.7642 198.156 57.5767C198.578 57.3892 199.024 57.2955 199.492 57.2955C199.863 57.2955 200.166 57.3253 200.4 57.3849C200.634 57.4446 200.809 57.5 200.924 57.5511L200.489 58.8551C200.413 58.8295 200.306 58.7976 200.17 58.7592C200.038 58.7209 199.863 58.7017 199.646 58.7017C199.147 58.7017 198.787 58.8274 198.565 59.0788C198.348 59.3303 198.239 59.6989 198.239 60.1847V71H196.731ZM205.777 71.2045C204.89 71.2045 204.113 70.9936 203.444 70.5717C202.779 70.1499 202.259 69.5597 201.884 68.8011C201.513 68.0426 201.328 67.1562 201.328 66.142C201.328 65.1193 201.513 64.2266 201.884 63.4638C202.259 62.701 202.779 62.1087 203.444 61.6868C204.113 61.2649 204.89 61.054 205.777 61.054C206.663 61.054 207.439 61.2649 208.104 61.6868C208.773 62.1087 209.292 62.701 209.663 63.4638C210.038 64.2266 210.226 65.1193 210.226 66.142C210.226 67.1562 210.038 68.0426 209.663 68.8011C209.292 69.5597 208.773 70.1499 208.104 70.5717C207.439 70.9936 206.663 71.2045 205.777 71.2045ZM205.777 69.8494C206.45 69.8494 207.004 69.6768 207.439 69.3317C207.873 68.9865 208.195 68.5327 208.404 67.9702C208.613 67.4077 208.717 66.7983 208.717 66.142C208.717 65.4858 208.613 64.8743 208.404 64.3075C208.195 63.7408 207.873 63.2827 207.439 62.9332C207.004 62.5838 206.45 62.4091 205.777 62.4091C205.104 62.4091 204.55 62.5838 204.115 62.9332C203.68 63.2827 203.358 63.7408 203.15 64.3075C202.941 64.8743 202.836 65.4858 202.836 66.142C202.836 66.7983 202.941 67.4077 203.15 67.9702C203.358 68.5327 203.68 68.9865 204.115 69.3317C204.55 69.6768 205.104 69.8494 205.777 69.8494ZM212.168 71V61.1818H213.626V62.6648H213.728C213.907 62.179 214.231 61.7848 214.7 61.4822C215.168 61.1797 215.697 61.0284 216.285 61.0284C216.396 61.0284 216.534 61.0305 216.7 61.0348C216.867 61.0391 216.992 61.0455 217.078 61.054V62.5881C217.026 62.5753 216.909 62.5561 216.726 62.5305C216.547 62.5007 216.357 62.4858 216.157 62.4858C215.68 62.4858 215.254 62.5859 214.879 62.7862C214.508 62.9822 214.214 63.255 213.997 63.6044C213.783 63.9496 213.677 64.3437 213.677 64.7869V71H212.168ZM5.65057 91.1818V92.4602H0.5625V91.1818H5.65057ZM2.04545 88.8295H3.55398V98.1875C3.55398 98.6136 3.61577 98.9332 3.73935 99.1463C3.86719 99.3551 4.02912 99.4957 4.22514 99.5682C4.42543 99.6364 4.63636 99.6705 4.85795 99.6705C5.02415 99.6705 5.16051 99.6619 5.26705 99.6449C5.37358 99.6236 5.45881 99.6065 5.52273 99.5938L5.82955 100.949C5.72727 100.987 5.58452 101.026 5.40128 101.064C5.21804 101.107 4.9858 101.128 4.70455 101.128C4.27841 101.128 3.8608 101.036 3.4517 100.853C3.04688 100.67 2.71023 100.391 2.44176 100.016C2.17756 99.6406 2.04545 99.1676 2.04545 98.5966V88.8295ZM9.2792 95.0938V101H7.77068V87.9091H9.2792V92.7159H9.40705C9.63716 92.2088 9.98233 91.8061 10.4426 91.5078C10.907 91.2053 11.5249 91.054 12.2962 91.054C12.9653 91.054 13.5512 91.1882 14.0541 91.4567C14.5569 91.7209 14.9468 92.1278 15.2238 92.6776C15.5051 93.223 15.6457 93.9176 15.6457 94.7614V101H14.1372V94.8636C14.1372 94.0838 13.9347 93.4808 13.5299 93.0547C13.1293 92.6243 12.5732 92.4091 11.8616 92.4091C11.3673 92.4091 10.9241 92.5135 10.532 92.7223C10.1443 92.9311 9.83744 93.2358 9.61159 93.6364C9.39 94.0369 9.2792 94.5227 9.2792 95.0938ZM22.1619 101.205C21.2159 101.205 20.3999 100.996 19.7138 100.578C19.032 100.156 18.5057 99.5682 18.1349 98.8139C17.7685 98.0554 17.5852 97.1733 17.5852 96.1676C17.5852 95.1619 17.7685 94.2756 18.1349 93.5085C18.5057 92.7372 19.0213 92.1364 19.6818 91.706C20.3466 91.2713 21.1222 91.054 22.0085 91.054C22.5199 91.054 23.0249 91.1392 23.5234 91.3097C24.022 91.4801 24.4758 91.7571 24.8849 92.1406C25.294 92.5199 25.62 93.0227 25.8629 93.6491C26.1058 94.2756 26.2273 95.0469 26.2273 95.9631V96.6023H18.6591V95.2983H24.6932C24.6932 94.7443 24.5824 94.25 24.3608 93.8153C24.1435 93.3807 23.8324 93.0376 23.4276 92.7862C23.027 92.5348 22.554 92.4091 22.0085 92.4091C21.4077 92.4091 20.8878 92.5582 20.4489 92.8565C20.0142 93.1506 19.6797 93.5341 19.4453 94.0071C19.2109 94.4801 19.0937 94.9872 19.0937 95.5284V96.3977C19.0937 97.1392 19.2216 97.7678 19.4773 98.2834C19.7372 98.7947 20.0973 99.1847 20.5575 99.4531C21.0177 99.7173 21.5526 99.8494 22.1619 99.8494C22.5582 99.8494 22.9162 99.794 23.2358 99.6832C23.5597 99.5682 23.8388 99.3977 24.0731 99.1719C24.3075 98.9418 24.4886 98.6562 24.6165 98.3153L26.0739 98.7244C25.9204 99.2188 25.6626 99.6534 25.3004 100.028C24.9382 100.399 24.4908 100.689 23.9581 100.898C23.4254 101.102 22.8267 101.205 22.1619 101.205ZM34.373 95.0938V101H32.8645V91.1818H34.3219V92.7159H34.4497C34.6799 92.2173 35.0293 91.8168 35.498 91.5142C35.9668 91.2074 36.5719 91.054 37.3134 91.054C37.9781 91.054 38.5598 91.1903 39.0584 91.4631C39.557 91.7315 39.9448 92.1406 40.2218 92.6903C40.4987 93.2358 40.6372 93.9261 40.6372 94.7614V101H39.1287V94.8636C39.1287 94.0923 38.9284 93.4915 38.5279 93.0611C38.1273 92.6264 37.5776 92.4091 36.8787 92.4091C36.3972 92.4091 35.9668 92.5135 35.5875 92.7223C35.2125 92.9311 34.9164 93.2358 34.699 93.6364C34.4817 94.0369 34.373 94.5227 34.373 95.0938ZM47.1503 101.205C46.2043 101.205 45.3882 100.996 44.7021 100.578C44.0203 100.156 43.494 99.5682 43.1233 98.8139C42.7568 98.0554 42.5736 97.1733 42.5736 96.1676C42.5736 95.1619 42.7568 94.2756 43.1233 93.5085C43.494 92.7372 44.0097 92.1364 44.6702 91.706C45.3349 91.2713 46.1105 91.054 46.9969 91.054C47.5082 91.054 48.0132 91.1392 48.5118 91.3097C49.0104 91.4801 49.4642 91.7571 49.8733 92.1406C50.2824 92.5199 50.6084 93.0227 50.8513 93.6491C51.0942 94.2756 51.2156 95.0469 51.2156 95.9631V96.6023H43.6474V95.2983H49.6815C49.6815 94.7443 49.5707 94.25 49.3491 93.8153C49.1318 93.3807 48.8207 93.0376 48.4159 92.7862C48.0153 92.5348 47.5423 92.4091 46.9969 92.4091C46.396 92.4091 45.8761 92.5582 45.4372 92.8565C45.0026 93.1506 44.668 93.5341 44.4337 94.0071C44.1993 94.4801 44.0821 94.9872 44.0821 95.5284V96.3977C44.0821 97.1392 44.2099 97.7678 44.4656 98.2834C44.7256 98.7947 45.0857 99.1847 45.5459 99.4531C46.0061 99.7173 46.5409 99.8494 47.1503 99.8494C47.5466 99.8494 47.9045 99.794 48.2241 99.6832C48.548 99.5682 48.8271 99.3977 49.0615 99.1719C49.2959 98.9418 49.477 98.6562 49.6048 98.3153L51.0622 98.7244C50.9088 99.2188 50.651 99.6534 50.2888 100.028C49.9266 100.399 49.4791 100.689 48.9464 100.898C48.4138 101.102 47.8151 101.205 47.1503 101.205ZM55.3748 101L52.3833 91.1818H53.9686L56.0907 98.6989H56.193L58.2896 91.1818H59.9004L61.9714 98.6733H62.0737L64.1958 91.1818H65.7811L62.7896 101H61.3066L59.1589 93.4574H59.0055L56.8578 101H55.3748ZM74.3423 101L71.3508 91.1818H72.9361L75.0582 98.6989H75.1605L77.2571 91.1818H78.8679L80.9389 98.6733H81.0412L83.1633 91.1818H84.7486L81.7571 101H80.2741L78.1264 93.4574H77.973L75.8253 101H74.3423ZM89.2721 101.23C88.6499 101.23 88.0853 101.113 87.5782 100.879C87.0711 100.64 86.6684 100.297 86.3701 99.8494C86.0718 99.3977 85.9226 98.8523 85.9226 98.2131C85.9226 97.6506 86.0334 97.1946 86.255 96.8452C86.4766 96.4915 86.7728 96.2145 87.1435 96.0142C87.5143 95.8139 87.9234 95.6648 88.3708 95.5668C88.8225 95.4645 89.2763 95.3835 89.7323 95.3239C90.3289 95.2472 90.8126 95.1896 91.1833 95.1513C91.5583 95.1087 91.831 95.0384 92.0015 94.9403C92.1762 94.8423 92.2636 94.6719 92.2636 94.429V94.3778C92.2636 93.7472 92.091 93.2571 91.7458 92.9077C91.4049 92.5582 90.8871 92.3835 90.1925 92.3835C89.4724 92.3835 88.9077 92.5412 88.4986 92.8565C88.0895 93.1719 87.8019 93.5085 87.6357 93.8665L86.2039 93.3551C86.4596 92.7585 86.8005 92.294 87.2266 91.9616C87.657 91.625 88.1258 91.3906 88.6329 91.2585C89.1442 91.1222 89.6471 91.054 90.1414 91.054C90.4567 91.054 90.819 91.0923 91.228 91.169C91.6414 91.2415 92.0398 91.3928 92.4234 91.6229C92.8111 91.853 93.1329 92.2003 93.3886 92.6648C93.6442 93.1293 93.7721 93.7514 93.7721 94.5312V101H92.2636V99.6705H92.1868C92.0846 99.8835 91.9141 100.112 91.6755 100.354C91.4368 100.597 91.1194 100.804 90.7231 100.974C90.3268 101.145 89.8431 101.23 89.2721 101.23ZM89.5022 99.875C90.0988 99.875 90.6016 99.7578 91.0107 99.5234C91.4241 99.2891 91.7351 98.9865 91.944 98.6158C92.157 98.245 92.2636 97.8551 92.2636 97.446V96.0653C92.1996 96.142 92.059 96.2124 91.8417 96.2763C91.6286 96.3359 91.3815 96.3892 91.1002 96.4361C90.8232 96.4787 90.5526 96.517 90.2884 96.5511C90.0285 96.581 89.8175 96.6065 89.6556 96.6278C89.2636 96.679 88.8971 96.7621 88.5562 96.8771C88.2195 96.9879 87.9468 97.1562 87.738 97.3821C87.5334 97.6037 87.4312 97.9062 87.4312 98.2898C87.4312 98.8139 87.6251 99.2102 88.0128 99.4787C88.4049 99.7429 88.9013 99.875 89.5022 99.875ZM96.7855 104.682C96.5298 104.682 96.3018 104.661 96.1015 104.618C95.9012 104.58 95.7628 104.541 95.686 104.503L96.0696 103.173C96.436 103.267 96.7599 103.301 97.0412 103.276C97.3224 103.25 97.5717 103.124 97.789 102.898C98.0106 102.677 98.213 102.317 98.3963 101.818L98.6775 101.051L95.0468 91.1818H96.6832L99.3934 99.0057H99.4957L102.206 91.1818H103.842L99.6747 102.432C99.4872 102.939 99.2549 103.359 98.9779 103.691C98.701 104.028 98.3792 104.277 98.0128 104.439C97.6505 104.601 97.2414 104.682 96.7855 104.682ZM112.428 93.3807L111.073 93.7642C110.988 93.5384 110.862 93.3189 110.696 93.1058C110.534 92.8885 110.312 92.7095 110.031 92.5689C109.75 92.4283 109.39 92.358 108.951 92.358C108.35 92.358 107.849 92.4964 107.449 92.7734C107.052 93.0462 106.854 93.3935 106.854 93.8153C106.854 94.1903 106.99 94.4865 107.263 94.7038C107.536 94.9212 107.962 95.1023 108.542 95.2472L109.999 95.6051C110.877 95.8182 111.531 96.1442 111.961 96.5831C112.392 97.0178 112.607 97.5781 112.607 98.2642C112.607 98.8267 112.445 99.3295 112.121 99.7727C111.802 100.216 111.354 100.565 110.779 100.821C110.204 101.077 109.534 101.205 108.772 101.205C107.77 101.205 106.941 100.987 106.285 100.553C105.629 100.118 105.213 99.483 105.039 98.6477L106.471 98.2898C106.607 98.8182 106.865 99.2145 107.244 99.4787C107.628 99.7429 108.128 99.875 108.746 99.875C109.449 99.875 110.008 99.7259 110.421 99.4276C110.838 99.125 111.047 98.7628 111.047 98.3409C111.047 98 110.928 97.7145 110.689 97.4844C110.451 97.25 110.084 97.0753 109.59 96.9602L107.954 96.5767C107.054 96.3636 106.394 96.0334 105.972 95.5859C105.554 95.1342 105.346 94.5696 105.346 93.892C105.346 93.3381 105.501 92.848 105.812 92.4219C106.128 91.9957 106.556 91.6612 107.097 91.4183C107.642 91.1754 108.26 91.054 108.951 91.054C109.922 91.054 110.685 91.267 111.239 91.6932C111.797 92.1193 112.194 92.6818 112.428 93.3807ZM121.445 101L118.453 91.1818H120.038L122.161 98.6989H122.263L124.359 91.1818H125.97L128.041 98.6733H128.144L130.266 91.1818H131.851L128.859 101H127.376L125.229 93.4574H125.075L122.928 101H121.445ZM137.268 101.205C136.322 101.205 135.506 100.996 134.82 100.578C134.138 100.156 133.611 99.5682 133.241 98.8139C132.874 98.0554 132.691 97.1733 132.691 96.1676C132.691 95.1619 132.874 94.2756 133.241 93.5085C133.611 92.7372 134.127 92.1364 134.788 91.706C135.452 91.2713 136.228 91.054 137.114 91.054C137.626 91.054 138.131 91.1392 138.629 91.3097C139.128 91.4801 139.582 91.7571 139.991 92.1406C140.4 92.5199 140.726 93.0227 140.969 93.6491C141.212 94.2756 141.333 95.0469 141.333 95.9631V96.6023H133.765V95.2983H139.799C139.799 94.7443 139.688 94.25 139.467 93.8153C139.249 93.3807 138.938 93.0376 138.533 92.7862C138.133 92.5348 137.66 92.4091 137.114 92.4091C136.513 92.4091 135.994 92.5582 135.555 92.8565C135.12 93.1506 134.785 93.5341 134.551 94.0071C134.317 94.4801 134.2 94.9872 134.2 95.5284V96.3977C134.2 97.1392 134.327 97.7678 134.583 98.2834C134.843 98.7947 135.203 99.1847 135.663 99.4531C136.124 99.7173 136.658 99.8494 137.268 99.8494C137.664 99.8494 138.022 99.794 138.342 99.6832C138.665 99.5682 138.945 99.3977 139.179 99.1719C139.413 98.9418 139.594 98.6562 139.722 98.3153L141.18 98.7244C141.026 99.2188 140.768 99.6534 140.406 100.028C140.044 100.399 139.597 100.689 139.064 100.898C138.531 101.102 137.932 101.205 137.268 101.205ZM149.479 87.9091V101H147.97V87.9091H149.479ZM151.882 101V91.1818H153.39V101H151.882ZM152.649 89.5455C152.355 89.5455 152.101 89.4453 151.888 89.245C151.679 89.0447 151.575 88.804 151.575 88.5227C151.575 88.2415 151.679 88.0007 151.888 87.8004C152.101 87.6001 152.355 87.5 152.649 87.5C152.943 87.5 153.194 87.6001 153.403 87.8004C153.616 88.0007 153.723 88.2415 153.723 88.5227C153.723 88.804 153.616 89.0447 153.403 89.245C153.194 89.4453 152.943 89.5455 152.649 89.5455ZM163.822 91.1818L160.191 101H158.657L155.026 91.1818H156.663L159.373 99.0057H159.475L162.185 91.1818H163.822ZM169.218 101.205C168.272 101.205 167.456 100.996 166.77 100.578C166.088 100.156 165.561 99.5682 165.191 98.8139C164.824 98.0554 164.641 97.1733 164.641 96.1676C164.641 95.1619 164.824 94.2756 165.191 93.5085C165.561 92.7372 166.077 92.1364 166.738 91.706C167.402 91.2713 168.178 91.054 169.064 91.054C169.576 91.054 170.081 91.1392 170.579 91.3097C171.078 91.4801 171.532 91.7571 171.941 92.1406C172.35 92.5199 172.676 93.0227 172.919 93.6491C173.162 94.2756 173.283 95.0469 173.283 95.9631V96.6023H165.715V95.2983H171.749C171.749 94.7443 171.638 94.25 171.417 93.8153C171.199 93.3807 170.888 93.0376 170.483 92.7862C170.083 92.5348 169.61 92.4091 169.064 92.4091C168.463 92.4091 167.944 92.5582 167.505 92.8565C167.07 93.1506 166.735 93.5341 166.501 94.0071C166.267 94.4801 166.15 94.9872 166.15 95.5284V96.3977C166.15 97.1392 166.277 97.7678 166.533 98.2834C166.793 98.7947 167.153 99.1847 167.613 99.4531C168.074 99.7173 168.608 99.8494 169.218 99.8494C169.614 99.8494 169.972 99.794 170.292 99.6832C170.615 99.5682 170.895 99.3977 171.129 99.1719C171.363 98.9418 171.544 98.6562 171.672 98.3153L173.13 98.7244C172.976 99.2188 172.718 99.6534 172.356 100.028C171.994 100.399 171.547 100.689 171.014 100.898C170.481 101.102 169.882 101.205 169.218 101.205ZM182.809 101.23C182.187 101.23 181.623 101.113 181.116 100.879C180.609 100.64 180.206 100.297 179.908 99.8494C179.609 99.3977 179.46 98.8523 179.46 98.2131C179.46 97.6506 179.571 97.1946 179.792 96.8452C180.014 96.4915 180.31 96.2145 180.681 96.0142C181.052 95.8139 181.461 95.6648 181.908 95.5668C182.36 95.4645 182.814 95.3835 183.27 95.3239C183.866 95.2472 184.35 95.1896 184.721 95.1513C185.096 95.1087 185.368 95.0384 185.539 94.9403C185.714 94.8423 185.801 94.6719 185.801 94.429V94.3778C185.801 93.7472 185.628 93.2571 185.283 92.9077C184.942 92.5582 184.425 92.3835 183.73 92.3835C183.01 92.3835 182.445 92.5412 182.036 92.8565C181.627 93.1719 181.339 93.5085 181.173 93.8665L179.741 93.3551C179.997 92.7585 180.338 92.294 180.764 91.9616C181.194 91.625 181.663 91.3906 182.17 91.2585C182.682 91.1222 183.184 91.054 183.679 91.054C183.994 91.054 184.356 91.0923 184.765 91.169C185.179 91.2415 185.577 91.3928 185.961 91.6229C186.349 91.853 186.67 92.2003 186.926 92.6648C187.182 93.1293 187.309 93.7514 187.309 94.5312V101H185.801V99.6705H185.724C185.622 99.8835 185.452 100.112 185.213 100.354C184.974 100.597 184.657 100.804 184.26 100.974C183.864 101.145 183.381 101.23 182.809 101.23ZM183.04 99.875C183.636 99.875 184.139 99.7578 184.548 99.5234C184.961 99.2891 185.273 98.9865 185.481 98.6158C185.694 98.245 185.801 97.8551 185.801 97.446V96.0653C185.737 96.142 185.596 96.2124 185.379 96.2763C185.166 96.3359 184.919 96.3892 184.638 96.4361C184.361 96.4787 184.09 96.517 183.826 96.5511C183.566 96.581 183.355 96.6065 183.193 96.6278C182.801 96.679 182.434 96.7621 182.094 96.8771C181.757 96.9879 181.484 97.1562 181.275 97.3821C181.071 97.6037 180.969 97.9062 180.969 98.2898C180.969 98.8139 181.162 99.2102 181.55 99.4787C181.942 99.7429 182.439 99.875 183.04 99.875ZM191.211 95.0938V101H189.703V91.1818H191.16V92.7159H191.288C191.518 92.2173 191.868 91.8168 192.336 91.5142C192.805 91.2074 193.41 91.054 194.152 91.054C194.817 91.054 195.398 91.1903 195.897 91.4631C196.395 91.7315 196.783 92.1406 197.06 92.6903C197.337 93.2358 197.476 93.9261 197.476 94.7614V101H195.967V94.8636C195.967 94.0923 195.767 93.4915 195.366 93.0611C194.966 92.6264 194.416 92.4091 193.717 92.4091C193.236 92.4091 192.805 92.5135 192.426 92.7223C192.051 92.9311 191.755 93.2358 191.537 93.6364C191.32 94.0369 191.211 94.5227 191.211 95.0938ZM203.58 101.205C202.761 101.205 202.039 100.998 201.413 100.585C200.786 100.167 200.296 99.5788 199.942 98.8203C199.589 98.0575 199.412 97.1562 199.412 96.1165C199.412 95.0852 199.589 94.1903 199.942 93.4318C200.296 92.6733 200.788 92.0874 201.419 91.674C202.05 91.2607 202.778 91.054 203.605 91.054C204.244 91.054 204.749 91.1605 205.12 91.3736C205.495 91.5824 205.781 91.821 205.977 92.0895C206.177 92.3537 206.332 92.571 206.443 92.7415H206.571V87.9091H208.08V101H206.622V99.4915H206.443C206.332 99.6705 206.175 99.8963 205.97 100.169C205.766 100.437 205.474 100.678 205.094 100.891C204.715 101.1 204.21 101.205 203.58 101.205ZM203.784 99.8494C204.389 99.8494 204.901 99.6918 205.318 99.3764C205.736 99.0568 206.053 98.6158 206.271 98.0533C206.488 97.4865 206.597 96.8324 206.597 96.0909C206.597 95.358 206.49 94.7166 206.277 94.1669C206.064 93.6129 205.749 93.1825 205.331 92.8757C204.913 92.5646 204.398 92.4091 203.784 92.4091C203.145 92.4091 202.612 92.5732 202.186 92.9013C201.764 93.2251 201.447 93.6662 201.234 94.2244C201.025 94.7784 200.92 95.4006 200.92 96.0909C200.92 96.7898 201.027 97.4247 201.24 97.9957C201.457 98.5625 201.777 99.0142 202.199 99.3509C202.625 99.6832 203.153 99.8494 203.784 99.8494ZM3.60511 131L0.613636 121.182H2.19886L4.32102 128.699H4.4233L6.51989 121.182H8.13068L10.2017 128.673H10.304L12.4261 121.182H14.0114L11.0199 131H9.53693L7.3892 123.457H7.2358L5.08807 131H3.60511ZM19.3003 131.205C18.414 131.205 17.6363 130.994 16.9672 130.572C16.3025 130.15 15.7826 129.56 15.4076 128.801C15.0368 128.043 14.8515 127.156 14.8515 126.142C14.8515 125.119 15.0368 124.227 15.4076 123.464C15.7826 122.701 16.3025 122.109 16.9672 121.687C17.6363 121.265 18.414 121.054 19.3003 121.054C20.1867 121.054 20.9623 121.265 21.627 121.687C22.2961 122.109 22.816 122.701 23.1867 123.464C23.5617 124.227 23.7492 125.119 23.7492 126.142C23.7492 127.156 23.5617 128.043 23.1867 128.801C22.816 129.56 22.2961 130.15 21.627 130.572C20.9623 130.994 20.1867 131.205 19.3003 131.205ZM19.3003 129.849C19.9736 129.849 20.5276 129.677 20.9623 129.332C21.3969 128.987 21.7187 128.533 21.9275 127.97C22.1363 127.408 22.2407 126.798 22.2407 126.142C22.2407 125.486 22.1363 124.874 21.9275 124.308C21.7187 123.741 21.3969 123.283 20.9623 122.933C20.5276 122.584 19.9736 122.409 19.3003 122.409C18.627 122.409 18.0731 122.584 17.6384 122.933C17.2037 123.283 16.882 123.741 16.6732 124.308C16.4644 124.874 16.36 125.486 16.36 126.142C16.36 126.798 16.4644 127.408 16.6732 127.97C16.882 128.533 17.2037 128.987 17.6384 129.332C18.0731 129.677 18.627 129.849 19.3003 129.849ZM25.6919 131V121.182H27.1493V122.665H27.2516C27.4306 122.179 27.7544 121.785 28.2232 121.482C28.6919 121.18 29.2203 121.028 29.8084 121.028C29.9192 121.028 30.0577 121.031 30.2239 121.035C30.3901 121.039 30.5158 121.045 30.601 121.054V122.588C30.5499 122.575 30.4327 122.556 30.2495 122.531C30.0705 122.501 29.8809 122.486 29.6806 122.486C29.2033 122.486 28.7772 122.586 28.4022 122.786C28.0314 122.982 27.7374 123.255 27.5201 123.604C27.307 123.95 27.2005 124.344 27.2005 124.787V131H25.6919ZM33.4354 127.42L33.4099 125.554H33.7167L38.0122 121.182H39.8786L35.3019 125.81H35.1741L33.4354 127.42ZM32.0292 131V117.909H33.5377V131H32.0292ZM38.2678 131L34.4326 126.142L35.5065 125.094L40.1854 131H38.2678ZM42.5596 131.102C42.2443 131.102 41.9737 130.989 41.7479 130.763C41.522 130.538 41.4091 130.267 41.4091 129.952C41.4091 129.636 41.522 129.366 41.7479 129.14C41.9737 128.914 42.2443 128.801 42.5596 128.801C42.875 128.801 43.1456 128.914 43.3714 129.14C43.5973 129.366 43.7102 129.636 43.7102 129.952C43.7102 130.161 43.6569 130.352 43.5504 130.527C43.4481 130.702 43.3096 130.842 43.1349 130.949C42.9645 131.051 42.7727 131.102 42.5596 131.102ZM53.3421 131L49.7626 117.909H51.3734L54.1092 128.571H54.237L57.0239 117.909H58.8137L61.6007 128.571H61.7285L64.4643 117.909H66.0751L62.4955 131H60.8592L57.97 120.568H57.8677L54.9785 131H53.3421ZM70.6881 131.205C69.7421 131.205 68.926 130.996 68.2399 130.578C67.5581 130.156 67.0318 129.568 66.6611 128.814C66.2946 128.055 66.1114 127.173 66.1114 126.168C66.1114 125.162 66.2946 124.276 66.6611 123.509C67.0318 122.737 67.5475 122.136 68.208 121.706C68.8728 121.271 69.6483 121.054 70.5347 121.054C71.0461 121.054 71.551 121.139 72.0496 121.31C72.5482 121.48 73.002 121.757 73.4111 122.141C73.8202 122.52 74.1462 123.023 74.3891 123.649C74.632 124.276 74.7534 125.047 74.7534 125.963V126.602H67.1853V125.298H73.2194C73.2194 124.744 73.1086 124.25 72.887 123.815C72.6696 123.381 72.3586 123.038 71.9537 122.786C71.5532 122.535 71.0801 122.409 70.5347 122.409C69.9338 122.409 69.414 122.558 68.975 122.857C68.5404 123.151 68.2059 123.534 67.9715 124.007C67.7371 124.48 67.6199 124.987 67.6199 125.528V126.398C67.6199 127.139 67.7478 127.768 68.0034 128.283C68.2634 128.795 68.6235 129.185 69.0837 129.453C69.5439 129.717 70.0787 129.849 70.6881 129.849C71.0844 129.849 71.4424 129.794 71.762 129.683C72.0858 129.568 72.3649 129.398 72.5993 129.172C72.8337 128.942 73.0148 128.656 73.1426 128.315L74.6 128.724C74.4466 129.219 74.1888 129.653 73.8266 130.028C73.4644 130.399 73.0169 130.689 72.4843 130.898C71.9516 131.102 71.3529 131.205 70.6881 131.205ZM81.3907 131V121.182H82.8481V122.716H82.9759C83.1805 122.192 83.5107 121.785 83.9667 121.495C84.4226 121.201 84.9702 121.054 85.6094 121.054C86.2572 121.054 86.7962 121.201 87.2266 121.495C87.6613 121.785 88.0001 122.192 88.243 122.716H88.3452C88.5967 122.209 88.9738 121.806 89.4766 121.508C89.9795 121.205 90.5824 121.054 91.2856 121.054C92.1634 121.054 92.8815 121.329 93.4397 121.879C93.9979 122.424 94.277 123.274 94.277 124.429V131H92.7685V124.429C92.7685 123.705 92.5704 123.187 92.1741 122.876C91.7778 122.565 91.3111 122.409 90.7742 122.409C90.0839 122.409 89.5491 122.618 89.1698 123.036C88.7905 123.449 88.6009 123.973 88.6009 124.608V131H87.0668V124.276C87.0668 123.717 86.8857 123.268 86.5235 122.927C86.1613 122.582 85.6947 122.409 85.1236 122.409C84.7316 122.409 84.3651 122.513 84.0242 122.722C83.6876 122.931 83.4148 123.221 83.206 123.592C83.0015 123.958 82.8992 124.382 82.8992 124.864V131H81.3907ZM99.5644 131.23C98.9423 131.23 98.3776 131.113 97.8705 130.879C97.3634 130.64 96.9607 130.297 96.6624 129.849C96.3641 129.398 96.215 128.852 96.215 128.213C96.215 127.651 96.3258 127.195 96.5474 126.845C96.769 126.491 97.0651 126.214 97.4359 126.014C97.8066 125.814 98.2157 125.665 98.6631 125.567C99.1148 125.464 99.5687 125.384 100.025 125.324C100.621 125.247 101.105 125.19 101.476 125.151C101.851 125.109 102.123 125.038 102.294 124.94C102.469 124.842 102.556 124.672 102.556 124.429V124.378C102.556 123.747 102.383 123.257 102.038 122.908C101.697 122.558 101.179 122.384 100.485 122.384C99.7647 122.384 99.2001 122.541 98.791 122.857C98.3819 123.172 98.0942 123.509 97.9281 123.866L96.4962 123.355C96.7519 122.759 97.0928 122.294 97.519 121.962C97.9494 121.625 98.4181 121.391 98.9252 121.259C99.4366 121.122 99.9394 121.054 100.434 121.054C100.749 121.054 101.111 121.092 101.52 121.169C101.934 121.241 102.332 121.393 102.716 121.623C103.103 121.853 103.425 122.2 103.681 122.665C103.937 123.129 104.064 123.751 104.064 124.531V131H102.556V129.67H102.479C102.377 129.884 102.206 130.112 101.968 130.354C101.729 130.597 101.412 130.804 101.015 130.974C100.619 131.145 100.135 131.23 99.5644 131.23ZM99.7945 129.875C100.391 129.875 100.894 129.758 101.303 129.523C101.716 129.289 102.027 128.987 102.236 128.616C102.449 128.245 102.556 127.855 102.556 127.446V126.065C102.492 126.142 102.351 126.212 102.134 126.276C101.921 126.336 101.674 126.389 101.393 126.436C101.116 126.479 100.845 126.517 100.581 126.551C100.321 126.581 100.11 126.607 99.9479 126.628C99.5559 126.679 99.1894 126.762 98.8485 126.877C98.5119 126.988 98.2391 127.156 98.0303 127.382C97.8258 127.604 97.7235 127.906 97.7235 128.29C97.7235 128.814 97.9174 129.21 98.3052 129.479C98.6972 129.743 99.1937 129.875 99.7945 129.875ZM107.864 127.42L107.838 125.554H108.145L112.441 121.182H114.307L109.731 125.81H109.603L107.864 127.42ZM106.458 131V117.909H107.966V131H106.458ZM112.696 131L108.861 126.142L109.935 125.094L114.614 131H112.696ZM119.601 131.205C118.655 131.205 117.839 130.996 117.153 130.578C116.471 130.156 115.945 129.568 115.574 128.814C115.208 128.055 115.024 127.173 115.024 126.168C115.024 125.162 115.208 124.276 115.574 123.509C115.945 122.737 116.46 122.136 117.121 121.706C117.786 121.271 118.561 121.054 119.448 121.054C119.959 121.054 120.464 121.139 120.962 121.31C121.461 121.48 121.915 121.757 122.324 122.141C122.733 122.52 123.059 123.023 123.302 123.649C123.545 124.276 123.666 125.047 123.666 125.963V126.602H116.098V125.298H122.132C122.132 124.744 122.021 124.25 121.8 123.815C121.583 123.381 121.271 123.038 120.867 122.786C120.466 122.535 119.993 122.409 119.448 122.409C118.847 122.409 118.327 122.558 117.888 122.857C117.453 123.151 117.119 123.534 116.884 124.007C116.65 124.48 116.533 124.987 116.533 125.528V126.398C116.533 127.139 116.661 127.768 116.916 128.283C117.176 128.795 117.536 129.185 117.997 129.453C118.457 129.717 118.992 129.849 119.601 129.849C119.997 129.849 120.355 129.794 120.675 129.683C120.999 129.568 121.278 129.398 121.512 129.172C121.747 128.942 121.928 128.656 122.056 128.315L123.513 128.724C123.36 129.219 123.102 129.653 122.739 130.028C122.377 130.399 121.93 130.689 121.397 130.898C120.864 131.102 120.266 131.205 119.601 131.205ZM133.193 131.23C132.571 131.23 132.006 131.113 131.499 130.879C130.992 130.64 130.589 130.297 130.291 129.849C129.992 129.398 129.843 128.852 129.843 128.213C129.843 127.651 129.954 127.195 130.176 126.845C130.397 126.491 130.693 126.214 131.064 126.014C131.435 125.814 131.844 125.665 132.292 125.567C132.743 125.464 133.197 125.384 133.653 125.324C134.25 125.247 134.733 125.19 135.104 125.151C135.479 125.109 135.752 125.038 135.922 124.94C136.097 124.842 136.184 124.672 136.184 124.429V124.378C136.184 123.747 136.012 123.257 135.667 122.908C135.326 122.558 134.808 122.384 134.113 122.384C133.393 122.384 132.828 122.541 132.419 122.857C132.01 123.172 131.723 123.509 131.556 123.866L130.125 123.355C130.38 122.759 130.721 122.294 131.147 121.962C131.578 121.625 132.046 121.391 132.554 121.259C133.065 121.122 133.568 121.054 134.062 121.054C134.377 121.054 134.74 121.092 135.149 121.169C135.562 121.241 135.961 121.393 136.344 121.623C136.732 121.853 137.054 122.2 137.309 122.665C137.565 123.129 137.693 123.751 137.693 124.531V131H136.184V129.67H136.108C136.005 129.884 135.835 130.112 135.596 130.354C135.358 130.597 135.04 130.804 134.644 130.974C134.247 131.145 133.764 131.23 133.193 131.23ZM133.423 129.875C134.019 129.875 134.522 129.758 134.931 129.523C135.345 129.289 135.656 128.987 135.865 128.616C136.078 128.245 136.184 127.855 136.184 127.446V126.065C136.12 126.142 135.98 126.212 135.762 126.276C135.549 126.336 135.302 126.389 135.021 126.436C134.744 126.479 134.473 126.517 134.209 126.551C133.949 126.581 133.738 126.607 133.576 126.628C133.184 126.679 132.818 126.762 132.477 126.877C132.14 126.988 131.867 127.156 131.659 127.382C131.454 127.604 131.352 127.906 131.352 128.29C131.352 128.814 131.546 129.21 131.934 129.479C132.326 129.743 132.822 129.875 133.423 129.875ZM144.993 131V117.909H146.502V122.741H146.63C146.74 122.571 146.894 122.354 147.09 122.089C147.29 121.821 147.576 121.582 147.946 121.374C148.321 121.161 148.828 121.054 149.468 121.054C150.294 121.054 151.023 121.261 151.654 121.674C152.284 122.087 152.777 122.673 153.13 123.432C153.484 124.19 153.661 125.085 153.661 126.116C153.661 127.156 153.484 128.058 153.13 128.82C152.777 129.579 152.287 130.167 151.66 130.585C151.034 130.998 150.311 131.205 149.493 131.205C148.863 131.205 148.358 131.1 147.978 130.891C147.599 130.678 147.307 130.437 147.103 130.169C146.898 129.896 146.74 129.67 146.63 129.491H146.451V131H144.993ZM146.476 126.091C146.476 126.832 146.585 127.487 146.802 128.053C147.019 128.616 147.337 129.057 147.755 129.376C148.172 129.692 148.684 129.849 149.289 129.849C149.919 129.849 150.446 129.683 150.867 129.351C151.294 129.014 151.613 128.562 151.826 127.996C152.044 127.425 152.152 126.79 152.152 126.091C152.152 125.401 152.046 124.778 151.833 124.224C151.624 123.666 151.306 123.225 150.88 122.901C150.458 122.573 149.928 122.409 149.289 122.409C148.675 122.409 148.159 122.565 147.742 122.876C147.324 123.183 147.009 123.613 146.796 124.167C146.583 124.717 146.476 125.358 146.476 126.091ZM159.725 131.205C158.779 131.205 157.963 130.996 157.277 130.578C156.595 130.156 156.069 129.568 155.698 128.814C155.331 128.055 155.148 127.173 155.148 126.168C155.148 125.162 155.331 124.276 155.698 123.509C156.069 122.737 156.584 122.136 157.245 121.706C157.909 121.271 158.685 121.054 159.571 121.054C160.083 121.054 160.588 121.139 161.086 121.31C161.585 121.48 162.039 121.757 162.448 122.141C162.857 122.52 163.183 123.023 163.426 123.649C163.669 124.276 163.79 125.047 163.79 125.963V126.602H156.222V125.298H162.256C162.256 124.744 162.145 124.25 161.924 123.815C161.706 123.381 161.395 123.038 160.99 122.786C160.59 122.535 160.117 122.409 159.571 122.409C158.971 122.409 158.451 122.558 158.012 122.857C157.577 123.151 157.243 123.534 157.008 124.007C156.774 124.48 156.657 124.987 156.657 125.528V126.398C156.657 127.139 156.784 127.768 157.04 128.283C157.3 128.795 157.66 129.185 158.12 129.453C158.581 129.717 159.115 129.849 159.725 129.849C160.121 129.849 160.479 129.794 160.799 129.683C161.123 129.568 161.402 129.398 161.636 129.172C161.87 128.942 162.052 128.656 162.179 128.315L163.637 128.724C163.483 129.219 163.226 129.653 162.863 130.028C162.501 130.399 162.054 130.689 161.521 130.898C160.988 131.102 160.39 131.205 159.725 131.205ZM169.995 121.182V122.46H164.907V121.182H169.995ZM166.39 118.83H167.898V128.188C167.898 128.614 167.96 128.933 168.084 129.146C168.211 129.355 168.373 129.496 168.569 129.568C168.77 129.636 168.981 129.67 169.202 129.67C169.368 129.67 169.505 129.662 169.611 129.645C169.718 129.624 169.803 129.607 169.867 129.594L170.174 130.949C170.071 130.987 169.929 131.026 169.746 131.064C169.562 131.107 169.33 131.128 169.049 131.128C168.623 131.128 168.205 131.036 167.796 130.853C167.391 130.67 167.054 130.391 166.786 130.016C166.522 129.641 166.39 129.168 166.39 128.597V118.83ZM176.174 121.182V122.46H171.086V121.182H176.174ZM172.569 118.83H174.077V128.188C174.077 128.614 174.139 128.933 174.263 129.146C174.39 129.355 174.552 129.496 174.748 129.568C174.949 129.636 175.16 129.67 175.381 129.67C175.547 129.67 175.684 129.662 175.79 129.645C175.897 129.624 175.982 129.607 176.046 129.594L176.353 130.949C176.251 130.987 176.108 131.026 175.925 131.064C175.741 131.107 175.509 131.128 175.228 131.128C174.802 131.128 174.384 131.036 173.975 130.853C173.57 130.67 173.234 130.391 172.965 130.016C172.701 129.641 172.569 129.168 172.569 128.597V118.83ZM182.094 131.205C181.148 131.205 180.332 130.996 179.646 130.578C178.964 130.156 178.438 129.568 178.067 128.814C177.701 128.055 177.517 127.173 177.517 126.168C177.517 125.162 177.701 124.276 178.067 123.509C178.438 122.737 178.953 122.136 179.614 121.706C180.279 121.271 181.054 121.054 181.941 121.054C182.452 121.054 182.957 121.139 183.456 121.31C183.954 121.48 184.408 121.757 184.817 122.141C185.226 122.52 185.552 123.023 185.795 123.649C186.038 124.276 186.159 125.047 186.159 125.963V126.602H178.591V125.298H184.625C184.625 124.744 184.514 124.25 184.293 123.815C184.076 123.381 183.764 123.038 183.36 122.786C182.959 122.535 182.486 122.409 181.941 122.409C181.34 122.409 180.82 122.558 180.381 122.857C179.946 123.151 179.612 123.534 179.377 124.007C179.143 124.48 179.026 124.987 179.026 125.528V126.398C179.026 127.139 179.154 127.768 179.409 128.283C179.669 128.795 180.029 129.185 180.49 129.453C180.95 129.717 181.485 129.849 182.094 129.849C182.49 129.849 182.848 129.794 183.168 129.683C183.492 129.568 183.771 129.398 184.005 129.172C184.24 128.942 184.421 128.656 184.549 128.315L186.006 128.724C185.853 129.219 185.595 129.653 185.233 130.028C184.87 130.399 184.423 130.689 183.89 130.898C183.358 131.102 182.759 131.205 182.094 131.205ZM188.094 131V121.182H189.552V122.665H189.654C189.833 122.179 190.157 121.785 190.625 121.482C191.094 121.18 191.623 121.028 192.211 121.028C192.321 121.028 192.46 121.031 192.626 121.035C192.792 121.039 192.918 121.045 193.003 121.054V122.588C192.952 122.575 192.835 122.556 192.652 122.531C192.473 122.501 192.283 122.486 192.083 122.486C191.605 122.486 191.179 122.586 190.804 122.786C190.434 122.982 190.14 123.255 189.922 123.604C189.709 123.95 189.603 124.344 189.603 124.787V131H188.094ZM3.60511 161L0.613636 151.182H2.19886L4.32102 158.699H4.4233L6.51989 151.182H8.13068L10.2017 158.673H10.304L12.4261 151.182H14.0114L11.0199 161H9.53693L7.3892 153.457H7.2358L5.08807 161H3.60511ZM19.3003 161.205C18.414 161.205 17.6363 160.994 16.9672 160.572C16.3025 160.15 15.7826 159.56 15.4076 158.801C15.0368 158.043 14.8515 157.156 14.8515 156.142C14.8515 155.119 15.0368 154.227 15.4076 153.464C15.7826 152.701 16.3025 152.109 16.9672 151.687C17.6363 151.265 18.414 151.054 19.3003 151.054C20.1867 151.054 20.9623 151.265 21.627 151.687C22.2961 152.109 22.816 152.701 23.1867 153.464C23.5617 154.227 23.7492 155.119 23.7492 156.142C23.7492 157.156 23.5617 158.043 23.1867 158.801C22.816 159.56 22.2961 160.15 21.627 160.572C20.9623 160.994 20.1867 161.205 19.3003 161.205ZM19.3003 159.849C19.9736 159.849 20.5276 159.677 20.9623 159.332C21.3969 158.987 21.7187 158.533 21.9275 157.97C22.1363 157.408 22.2407 156.798 22.2407 156.142C22.2407 155.486 22.1363 154.874 21.9275 154.308C21.7187 153.741 21.3969 153.283 20.9623 152.933C20.5276 152.584 19.9736 152.409 19.3003 152.409C18.627 152.409 18.0731 152.584 17.6384 152.933C17.2037 153.283 16.882 153.741 16.6732 154.308C16.4644 154.874 16.36 155.486 16.36 156.142C16.36 156.798 16.4644 157.408 16.6732 157.97C16.882 158.533 17.2037 158.987 17.6384 159.332C18.0731 159.677 18.627 159.849 19.3003 159.849ZM25.6919 161V151.182H27.1493V152.665H27.2516C27.4306 152.179 27.7544 151.785 28.2232 151.482C28.6919 151.18 29.2203 151.028 29.8084 151.028C29.9192 151.028 30.0577 151.031 30.2239 151.035C30.3901 151.039 30.5158 151.045 30.601 151.054V152.588C30.5499 152.575 30.4327 152.556 30.2495 152.531C30.0705 152.501 29.8809 152.486 29.6806 152.486C29.2033 152.486 28.7772 152.586 28.4022 152.786C28.0314 152.982 27.7374 153.255 27.5201 153.604C27.307 153.95 27.2005 154.344 27.2005 154.787V161H25.6919ZM33.4354 157.42L33.4099 155.554H33.7167L38.0122 151.182H39.8786L35.3019 155.81H35.1741L33.4354 157.42ZM32.0292 161V147.909H33.5377V161H32.0292ZM38.2678 161L34.4326 156.142L35.5065 155.094L40.1854 161H38.2678ZM48.4148 153.381L47.0596 153.764C46.9744 153.538 46.8487 153.319 46.6825 153.106C46.5206 152.888 46.299 152.71 46.0177 152.569C45.7365 152.428 45.3764 152.358 44.9375 152.358C44.3366 152.358 43.8359 152.496 43.4354 152.773C43.039 153.046 42.8409 153.393 42.8409 153.815C42.8409 154.19 42.9773 154.487 43.25 154.704C43.5227 154.921 43.9489 155.102 44.5284 155.247L45.9858 155.605C46.8636 155.818 47.5177 156.144 47.9481 156.583C48.3785 157.018 48.5937 157.578 48.5937 158.264C48.5937 158.827 48.4318 159.33 48.1079 159.773C47.7883 160.216 47.3409 160.565 46.7656 160.821C46.1903 161.077 45.5213 161.205 44.7585 161.205C43.7571 161.205 42.9283 160.987 42.272 160.553C41.6158 160.118 41.2003 159.483 41.0256 158.648L42.4574 158.29C42.5937 158.818 42.8515 159.214 43.2308 159.479C43.6143 159.743 44.115 159.875 44.7329 159.875C45.4361 159.875 45.9943 159.726 46.4077 159.428C46.8253 159.125 47.0341 158.763 47.0341 158.341C47.0341 158 46.9148 157.714 46.6761 157.484C46.4375 157.25 46.071 157.075 45.5767 156.96L43.9403 156.577C43.0412 156.364 42.3807 156.033 41.9588 155.586C41.5412 155.134 41.3324 154.57 41.3324 153.892C41.3324 153.338 41.4879 152.848 41.799 152.422C42.1143 151.996 42.5426 151.661 43.0838 151.418C43.6292 151.175 44.2471 151.054 44.9375 151.054C45.9091 151.054 46.6719 151.267 47.2258 151.693C47.7841 152.119 48.1804 152.682 48.4148 153.381ZM50.5045 164.682V151.182H51.9619V152.741H52.1409C52.2517 152.571 52.4051 152.354 52.6011 152.089C52.8014 151.821 53.0869 151.582 53.4576 151.374C53.8326 151.161 54.3397 151.054 54.9789 151.054C55.8056 151.054 56.5343 151.261 57.165 151.674C57.7957 152.087 58.2879 152.673 58.6416 153.432C58.9953 154.19 59.1721 155.085 59.1721 156.116C59.1721 157.156 58.9953 158.058 58.6416 158.82C58.2879 159.579 57.7978 160.167 57.1714 160.585C56.545 160.998 55.8227 161.205 55.0045 161.205C54.3738 161.205 53.8689 161.1 53.4896 160.891C53.1103 160.678 52.8184 160.437 52.6139 160.169C52.4093 159.896 52.2517 159.67 52.1409 159.491H52.013V164.682H50.5045ZM51.9875 156.091C51.9875 156.832 52.0961 157.487 52.3135 158.053C52.5308 158.616 52.8483 159.057 53.2659 159.376C53.6835 159.692 54.1949 159.849 54.8 159.849C55.4306 159.849 55.9569 159.683 56.3788 159.351C56.8049 159.014 57.1245 158.562 57.3376 157.996C57.5549 157.425 57.6636 156.79 57.6636 156.091C57.6636 155.401 57.5571 154.778 57.344 154.224C57.1352 153.666 56.8177 153.225 56.3916 152.901C55.9697 152.573 55.4392 152.409 54.8 152.409C54.1863 152.409 53.6707 152.565 53.2531 152.876C52.8355 153.183 52.5201 153.613 52.3071 154.167C52.094 154.717 51.9875 155.358 51.9875 156.091ZM64.0025 161.23C63.3803 161.23 62.8157 161.113 62.3086 160.879C61.8015 160.64 61.3988 160.297 61.1005 159.849C60.8022 159.398 60.653 158.852 60.653 158.213C60.653 157.651 60.7638 157.195 60.9854 156.845C61.207 156.491 61.5032 156.214 61.8739 156.014C62.2447 155.814 62.6537 155.665 63.1012 155.567C63.5529 155.464 64.0067 155.384 64.4627 155.324C65.0593 155.247 65.5429 155.19 65.9137 155.151C66.2887 155.109 66.5614 155.038 66.7319 154.94C66.9066 154.842 66.9939 154.672 66.9939 154.429V154.378C66.9939 153.747 66.8214 153.257 66.4762 152.908C66.1353 152.558 65.6175 152.384 64.9229 152.384C64.2027 152.384 63.6381 152.541 63.229 152.857C62.8199 153.172 62.5323 153.509 62.3661 153.866L60.9343 153.355C61.19 152.759 61.5309 152.294 61.957 151.962C62.3874 151.625 62.8562 151.391 63.3633 151.259C63.8746 151.122 64.3775 151.054 64.8718 151.054C65.1871 151.054 65.5493 151.092 65.9584 151.169C66.3718 151.241 66.7702 151.393 67.1537 151.623C67.5415 151.853 67.8633 152.2 68.1189 152.665C68.3746 153.129 68.5025 153.751 68.5025 154.531V161H66.9939V159.67H66.9172C66.815 159.884 66.6445 160.112 66.4059 160.354C66.1672 160.597 65.8498 160.804 65.4535 160.974C65.0572 161.145 64.5735 161.23 64.0025 161.23ZM64.2326 159.875C64.8292 159.875 65.332 159.758 65.7411 159.523C66.1545 159.289 66.4655 158.987 66.6743 158.616C66.8874 158.245 66.9939 157.855 66.9939 157.446V156.065C66.93 156.142 66.7894 156.212 66.5721 156.276C66.359 156.336 66.1118 156.389 65.8306 156.436C65.5536 156.479 65.283 156.517 65.0188 156.551C64.7589 156.581 64.5479 156.607 64.386 156.628C63.9939 156.679 63.6275 156.762 63.2866 156.877C62.9499 156.988 62.6772 157.156 62.4684 157.382C62.2638 157.604 62.1616 157.906 62.1616 158.29C62.1616 158.814 62.3554 159.21 62.7432 159.479C63.1353 159.743 63.6317 159.875 64.2326 159.875ZM74.8845 161.205C73.964 161.205 73.1714 160.987 72.5066 160.553C71.8419 160.118 71.3305 159.519 70.9725 158.756C70.6146 157.994 70.4356 157.122 70.4356 156.142C70.4356 155.145 70.6189 154.265 70.9853 153.502C71.3561 152.735 71.8717 152.136 72.5322 151.706C73.197 151.271 73.9725 151.054 74.8589 151.054C75.5493 151.054 76.1714 151.182 76.7254 151.438C77.2794 151.693 77.7332 152.051 78.0869 152.511C78.4406 152.972 78.66 153.509 78.7453 154.122H77.2368C77.1217 153.675 76.866 153.278 76.4697 152.933C76.0777 152.584 75.5493 152.409 74.8845 152.409C74.2964 152.409 73.7808 152.562 73.3376 152.869C72.8987 153.172 72.5556 153.6 72.3085 154.154C72.0656 154.704 71.9441 155.349 71.9441 156.091C71.9441 156.849 72.0635 157.51 72.3021 158.072C72.545 158.635 72.8859 159.072 73.3248 159.383C73.768 159.694 74.2879 159.849 74.8845 159.849C75.2765 159.849 75.6323 159.781 75.9519 159.645C76.2716 159.509 76.5421 159.312 76.7637 159.057C76.9853 158.801 77.143 158.494 77.2368 158.136H78.7453C78.66 158.716 78.4491 159.238 78.1125 159.702C77.7801 160.163 77.339 160.529 76.7893 160.802C76.2439 161.07 75.6089 161.205 74.8845 161.205ZM84.707 161.205C83.761 161.205 82.9449 160.996 82.2589 160.578C81.577 160.156 81.0508 159.568 80.68 158.814C80.3135 158.055 80.1303 157.173 80.1303 156.168C80.1303 155.162 80.3135 154.276 80.68 153.509C81.0508 152.737 81.5664 152.136 82.2269 151.706C82.8917 151.271 83.6672 151.054 84.5536 151.054C85.065 151.054 85.5699 151.139 86.0685 151.31C86.5671 151.48 87.0209 151.757 87.43 152.141C87.8391 152.52 88.1651 153.023 88.408 153.649C88.6509 154.276 88.7723 155.047 88.7723 155.963V156.602H81.2042V155.298H87.2383C87.2383 154.744 87.1275 154.25 86.9059 153.815C86.6885 153.381 86.3775 153.038 85.9726 152.786C85.5721 152.535 85.0991 152.409 84.5536 152.409C83.9527 152.409 83.4329 152.558 82.9939 152.857C82.5593 153.151 82.2248 153.534 81.9904 154.007C81.756 154.48 81.6388 154.987 81.6388 155.528V156.398C81.6388 157.139 81.7667 157.768 82.0223 158.283C82.2823 158.795 82.6424 159.185 83.1026 159.453C83.5628 159.717 84.0976 159.849 84.707 159.849C85.1033 159.849 85.4613 159.794 85.7809 159.683C86.1047 159.568 86.3839 159.398 86.6182 159.172C86.8526 158.942 87.0337 158.656 87.1616 158.315L88.6189 158.724C88.4655 159.219 88.2077 159.653 87.8455 160.028C87.4833 160.399 87.0358 160.689 86.5032 160.898C85.9705 161.102 85.3718 161.205 84.707 161.205ZM98.2988 161.23C97.6766 161.23 97.112 161.113 96.6049 160.879C96.0978 160.64 95.6951 160.297 95.3968 159.849C95.0985 159.398 94.9494 158.852 94.9494 158.213C94.9494 157.651 95.0602 157.195 95.2817 156.845C95.5033 156.491 95.7995 156.214 96.1702 156.014C96.541 155.814 96.9501 155.665 97.3975 155.567C97.8492 155.464 98.3031 155.384 98.759 155.324C99.3556 155.247 99.8393 155.19 100.21 155.151C100.585 155.109 100.858 155.038 101.028 154.94C101.203 154.842 101.29 154.672 101.29 154.429V154.378C101.29 153.747 101.118 153.257 100.773 152.908C100.432 152.558 99.9139 152.384 99.2192 152.384C98.4991 152.384 97.9344 152.541 97.5254 152.857C97.1163 153.172 96.8286 153.509 96.6624 153.866L95.2306 153.355C95.4863 152.759 95.8272 152.294 96.2533 151.962C96.6837 151.625 97.1525 151.391 97.6596 151.259C98.171 151.122 98.6738 151.054 99.1681 151.054C99.4835 151.054 99.8457 151.092 100.255 151.169C100.668 151.241 101.067 151.393 101.45 151.623C101.838 151.853 102.16 152.2 102.415 152.665C102.671 153.129 102.799 153.751 102.799 154.531V161H101.29V159.67H101.214C101.111 159.884 100.941 160.112 100.702 160.354C100.464 160.597 100.146 160.804 99.7498 160.974C99.3535 161.145 98.8698 161.23 98.2988 161.23ZM98.5289 159.875C99.1255 159.875 99.6283 159.758 100.037 159.523C100.451 159.289 100.762 158.987 100.971 158.616C101.184 158.245 101.29 157.855 101.29 157.446V156.065C101.226 156.142 101.086 156.212 100.868 156.276C100.655 156.336 100.408 156.389 100.127 156.436C99.8499 156.479 99.5793 156.517 99.3151 156.551C99.0552 156.581 98.8442 156.607 98.6823 156.628C98.2903 156.679 97.9238 156.762 97.5829 156.877C97.2462 156.988 96.9735 157.156 96.7647 157.382C96.5602 157.604 96.4579 157.906 96.4579 158.29C96.4579 158.814 96.6518 159.21 97.0396 159.479C97.4316 159.743 97.9281 159.875 98.5289 159.875ZM105.192 161V151.182H106.65V152.665H106.752C106.931 152.179 107.255 151.785 107.723 151.482C108.192 151.18 108.721 151.028 109.309 151.028C109.419 151.028 109.558 151.031 109.724 151.035C109.89 151.039 110.016 151.045 110.101 151.054V152.588C110.05 152.575 109.933 152.556 109.75 152.531C109.571 152.501 109.381 152.486 109.181 152.486C108.704 152.486 108.277 152.586 107.902 152.786C107.532 152.982 107.238 153.255 107.02 153.604C106.807 153.95 106.701 154.344 106.701 154.787V161H105.192ZM115.219 161.205C114.333 161.205 113.555 160.994 112.886 160.572C112.221 160.15 111.701 159.56 111.326 158.801C110.956 158.043 110.77 157.156 110.77 156.142C110.77 155.119 110.956 154.227 111.326 153.464C111.701 152.701 112.221 152.109 112.886 151.687C113.555 151.265 114.333 151.054 115.219 151.054C116.106 151.054 116.881 151.265 117.546 151.687C118.215 152.109 118.735 152.701 119.106 153.464C119.481 154.227 119.668 155.119 119.668 156.142C119.668 157.156 119.481 158.043 119.106 158.801C118.735 159.56 118.215 160.15 117.546 160.572C116.881 160.994 116.106 161.205 115.219 161.205ZM115.219 159.849C115.893 159.849 116.447 159.677 116.881 159.332C117.316 158.987 117.638 158.533 117.846 157.97C118.055 157.408 118.16 156.798 118.16 156.142C118.16 155.486 118.055 154.874 117.846 154.308C117.638 153.741 117.316 153.283 116.881 152.933C116.447 152.584 115.893 152.409 115.219 152.409C114.546 152.409 113.992 152.584 113.557 152.933C113.123 153.283 112.801 153.741 112.592 154.308C112.383 154.874 112.279 155.486 112.279 156.142C112.279 156.798 112.383 157.408 112.592 157.97C112.801 158.533 113.123 158.987 113.557 159.332C113.992 159.677 114.546 159.849 115.219 159.849ZM127.798 156.986V151.182H129.307V161H127.798V159.338H127.696C127.466 159.837 127.108 160.261 126.622 160.61C126.136 160.955 125.523 161.128 124.781 161.128C124.168 161.128 123.622 160.994 123.145 160.725C122.668 160.452 122.293 160.043 122.02 159.498C121.747 158.948 121.611 158.256 121.611 157.42V151.182H123.119V157.318C123.119 158.034 123.32 158.605 123.72 159.031C124.125 159.457 124.641 159.67 125.267 159.67C125.642 159.67 126.023 159.575 126.411 159.383C126.803 159.191 127.131 158.897 127.396 158.501C127.664 158.104 127.798 157.599 127.798 156.986ZM133.218 155.094V161H131.71V151.182H133.167V152.716H133.295C133.525 152.217 133.875 151.817 134.343 151.514C134.812 151.207 135.417 151.054 136.159 151.054C136.823 151.054 137.405 151.19 137.904 151.463C138.402 151.732 138.79 152.141 139.067 152.69C139.344 153.236 139.483 153.926 139.483 154.761V161H137.974V154.864C137.974 154.092 137.774 153.491 137.373 153.061C136.973 152.626 136.423 152.409 135.724 152.409C135.242 152.409 134.812 152.513 134.433 152.722C134.058 152.931 133.762 153.236 133.544 153.636C133.327 154.037 133.218 154.523 133.218 155.094ZM145.587 161.205C144.768 161.205 144.046 160.998 143.42 160.585C142.793 160.167 142.303 159.579 141.949 158.82C141.596 158.058 141.419 157.156 141.419 156.116C141.419 155.085 141.596 154.19 141.949 153.432C142.303 152.673 142.795 152.087 143.426 151.674C144.057 151.261 144.785 151.054 145.612 151.054C146.251 151.054 146.756 151.161 147.127 151.374C147.502 151.582 147.788 151.821 147.984 152.089C148.184 152.354 148.339 152.571 148.45 152.741H148.578V147.909H150.087V161H148.629V159.491H148.45C148.339 159.67 148.182 159.896 147.977 160.169C147.773 160.437 147.481 160.678 147.101 160.891C146.722 161.1 146.217 161.205 145.587 161.205ZM145.791 159.849C146.396 159.849 146.908 159.692 147.325 159.376C147.743 159.057 148.06 158.616 148.278 158.053C148.495 157.487 148.604 156.832 148.604 156.091C148.604 155.358 148.497 154.717 148.284 154.167C148.071 153.613 147.756 153.183 147.338 152.876C146.92 152.565 146.405 152.409 145.791 152.409C145.152 152.409 144.619 152.573 144.193 152.901C143.771 153.225 143.454 153.666 143.241 154.224C143.032 154.778 142.927 155.401 142.927 156.091C142.927 156.79 143.034 157.425 143.247 157.996C143.464 158.562 143.784 159.014 144.206 159.351C144.632 159.683 145.16 159.849 145.791 159.849ZM161.671 151.182V152.46H156.583V151.182H161.671ZM158.066 148.83H159.575V158.188C159.575 158.614 159.636 158.933 159.76 159.146C159.888 159.355 160.05 159.496 160.246 159.568C160.446 159.636 160.657 159.67 160.879 159.67C161.045 159.67 161.181 159.662 161.288 159.645C161.394 159.624 161.479 159.607 161.543 159.594L161.85 160.949C161.748 160.987 161.605 161.026 161.422 161.064C161.239 161.107 161.006 161.128 160.725 161.128C160.299 161.128 159.881 161.036 159.472 160.853C159.068 160.67 158.731 160.391 158.462 160.016C158.198 159.641 158.066 159.168 158.066 158.597V148.83ZM165.3 155.094V161H163.791V147.909H165.3V152.716H165.428C165.658 152.209 166.003 151.806 166.463 151.508C166.928 151.205 167.546 151.054 168.317 151.054C168.986 151.054 169.572 151.188 170.075 151.457C170.578 151.721 170.967 152.128 171.244 152.678C171.526 153.223 171.666 153.918 171.666 154.761V161H170.158V154.864C170.158 154.084 169.955 153.481 169.551 153.055C169.15 152.624 168.594 152.409 167.882 152.409C167.388 152.409 166.945 152.513 166.553 152.722C166.165 152.931 165.858 153.236 165.632 153.636C165.411 154.037 165.3 154.523 165.3 155.094ZM178.183 161.205C177.237 161.205 176.42 160.996 175.734 160.578C175.053 160.156 174.526 159.568 174.156 158.814C173.789 158.055 173.606 157.173 173.606 156.168C173.606 155.162 173.789 154.276 174.156 153.509C174.526 152.737 175.042 152.136 175.702 151.706C176.367 151.271 177.143 151.054 178.029 151.054C178.541 151.054 179.045 151.139 179.544 151.31C180.043 151.48 180.496 151.757 180.906 152.141C181.315 152.52 181.641 153.023 181.884 153.649C182.126 154.276 182.248 155.047 182.248 155.963V156.602H174.68V155.298H180.714C180.714 154.744 180.603 154.25 180.381 153.815C180.164 153.381 179.853 153.038 179.448 152.786C179.048 152.535 178.575 152.409 178.029 152.409C177.428 152.409 176.908 152.558 176.469 152.857C176.035 153.151 175.7 153.534 175.466 154.007C175.232 154.48 175.114 154.987 175.114 155.528V156.398C175.114 157.139 175.242 157.768 175.498 158.283C175.758 158.795 176.118 159.185 176.578 159.453C177.038 159.717 177.573 159.849 178.183 159.849C178.579 159.849 178.937 159.794 179.256 159.683C179.58 159.568 179.859 159.398 180.094 159.172C180.328 158.942 180.509 158.656 180.637 158.315L182.094 158.724C181.941 159.219 181.683 159.653 181.321 160.028C180.959 160.399 180.511 160.689 179.979 160.898C179.446 161.102 178.847 161.205 178.183 161.205ZM191.11 161L188.118 151.182H189.703L191.825 158.699H191.928L194.024 151.182H195.635L197.706 158.673H197.808L199.931 151.182H201.516L198.524 161H197.041L194.894 153.457H194.74L192.593 161H191.11ZM206.805 161.205C205.918 161.205 205.141 160.994 204.472 160.572C203.807 160.15 203.287 159.56 202.912 158.801C202.541 158.043 202.356 157.156 202.356 156.142C202.356 155.119 202.541 154.227 202.912 153.464C203.287 152.701 203.807 152.109 204.472 151.687C205.141 151.265 205.918 151.054 206.805 151.054C207.691 151.054 208.467 151.265 209.131 151.687C209.801 152.109 210.32 152.701 210.691 153.464C211.066 154.227 211.254 155.119 211.254 156.142C211.254 157.156 211.066 158.043 210.691 158.801C210.32 159.56 209.801 160.15 209.131 160.572C208.467 160.994 207.691 161.205 206.805 161.205ZM206.805 159.849C207.478 159.849 208.032 159.677 208.467 159.332C208.901 158.987 209.223 158.533 209.432 157.97C209.641 157.408 209.745 156.798 209.745 156.142C209.745 155.486 209.641 154.874 209.432 154.308C209.223 153.741 208.901 153.283 208.467 152.933C208.032 152.584 207.478 152.409 206.805 152.409C206.131 152.409 205.578 152.584 205.143 152.933C204.708 153.283 204.386 153.741 204.178 154.308C203.969 154.874 203.864 155.486 203.864 156.142C203.864 156.798 203.969 157.408 204.178 157.97C204.386 158.533 204.708 158.987 205.143 159.332C205.578 159.677 206.131 159.849 206.805 159.849ZM213.196 161V151.182H214.654V152.665H214.756C214.935 152.179 215.259 151.785 215.728 151.482C216.196 151.18 216.725 151.028 217.313 151.028C217.424 151.028 217.562 151.031 217.728 151.035C217.895 151.039 218.02 151.045 218.105 151.054V152.588C218.054 152.575 217.937 152.556 217.754 152.531C217.575 152.501 217.385 152.486 217.185 152.486C216.708 152.486 216.282 152.586 215.907 152.786C215.536 152.982 215.242 153.255 215.025 153.604C214.811 153.95 214.705 154.344 214.705 154.787V161H213.196ZM221.042 147.909V161H219.534V147.909H221.042ZM227.153 161.205C226.334 161.205 225.612 160.998 224.986 160.585C224.359 160.167 223.869 159.579 223.515 158.82C223.162 158.058 222.985 157.156 222.985 156.116C222.985 155.085 223.162 154.19 223.515 153.432C223.869 152.673 224.361 152.087 224.992 151.674C225.623 151.261 226.351 151.054 227.178 151.054C227.817 151.054 228.322 151.161 228.693 151.374C229.068 151.582 229.354 151.821 229.55 152.089C229.75 152.354 229.905 152.571 230.016 152.741H230.144V147.909H231.653V161H230.195V159.491H230.016C229.905 159.67 229.748 159.896 229.543 160.169C229.339 160.437 229.047 160.678 228.667 160.891C228.288 161.1 227.783 161.205 227.153 161.205ZM227.357 159.849C227.962 159.849 228.474 159.692 228.891 159.376C229.309 159.057 229.626 158.616 229.844 158.053C230.061 157.487 230.17 156.832 230.17 156.091C230.17 155.358 230.063 154.717 229.85 154.167C229.637 153.613 229.322 153.183 228.904 152.876C228.486 152.565 227.971 152.409 227.357 152.409C226.718 152.409 226.185 152.573 225.759 152.901C225.337 153.225 225.02 153.666 224.807 154.224C224.598 154.778 224.493 155.401 224.493 156.091C224.493 156.79 224.6 157.425 224.813 157.996C225.03 158.562 225.35 159.014 225.772 159.351C226.198 159.683 226.726 159.849 227.357 159.849Z" fill="#F7F7EE"/>
<defs>
<clipPath id="clip0_9_2760">
<rect width="37" height="29" fill="white" transform="translate(0 2.5)"/>
</clipPath>
</defs>
</svg>
